<svg width="422" height="60" viewBox="0 0 422 60" fill="none" xmlns="http://www.w3.org/2000/svg">
<path d="M347.896 59.9033C331.038 59.924 318.962 47.6447 319.021 30.5352C319.076 14.1081 331.575 1.45995 347.799 1.41417C364.395 1.37098 377.15 14.1262 377.042 30.6691C376.934 47.7112 364.8 59.8826 347.896 59.9033ZM347.849 47.9626C351.842 48.0593 355.864 46.5736 358.576 43.737C363.815 38.2625 364.756 31.7721 362.851 24.6633C360.783 16.9352 352.768 11.9936 344.942 13.6373C338.099 15.0755 333.551 20.1536 332.454 28.1668C331.033 38.5294 337.692 47.9315 347.849 47.9626Z" fill="#04BE62"/>
<path d="M304.35 28.9426C312.703 30.6417 316.958 37.4369 315.476 45.9588C314.295 52.7541 308.867 57.8952 301.874 58.5966C293.575 59.4293 285.241 58.7849 276.927 58.9914C275.823 59.019 275.814 58.4377 275.819 57.6396C275.84 54.4678 275.828 51.2961 275.828 48.1243C275.828 33.5862 275.858 19.049 275.786 4.51184C275.778 2.83268 276.24 2.43189 277.871 2.46471C284.607 2.60032 291.352 2.43966 298.083 2.69275C302.187 2.84736 306.051 3.9884 309.408 6.69458C314.679 10.9504 314.207 20.463 310.48 24.8752C308.952 26.6847 307.07 27.913 304.35 28.9426ZM292.854 48.8015C294.038 48.7393 295.226 48.7151 296.406 48.6089C299.508 48.3282 301.599 46.3821 302.147 43.3054C302.778 39.7639 301.663 37.3695 298.689 35.9581C295.878 34.6236 292.861 35.2602 289.929 35.0495C288.711 34.9631 288.531 35.5124 288.55 36.5498C288.608 39.1869 288.569 41.8257 288.569 44.4645C288.574 48.7626 288.574 48.7626 292.854 48.8015ZM288.571 18.7968C288.571 20.444 288.614 22.0921 288.555 23.7358C288.52 24.7041 288.739 25.2094 289.847 25.1369C291.551 25.0254 293.273 25.1256 294.969 24.952C298.655 24.5737 300.752 22.1646 300.743 18.4919C300.733 14.9816 298.772 13.0294 294.903 12.6934C294.248 12.6364 293.588 12.6148 292.931 12.6071C288.577 12.5596 288.577 12.5621 288.577 16.8205L288.571 18.7968Z" fill="#04BE62"/>
<path d="M29.1555 53.6625C24.4699 59.4238 18.7665 61.1116 12.2203 59.315C5.67407 57.5184 1.94937 52.7115 0.611855 46.279C-0.878197 39.1192 0.353315 32.4259 5.78265 27.074C12.1134 20.8342 23.0436 21.4051 28.7841 28.1753C29.3873 27.822 29.0642 27.2425 29.0659 26.8002C29.0892 18.5383 29.1159 10.2763 29.0512 2.01009C29.0392 0.541683 29.2908 -0.0690002 30.9472 0.00614758C34.179 0.152988 37.4236 0.0838866 40.6614 0.0294693C41.7344 0.0113302 42.1515 0.267869 42.1497 1.45037C42.113 20.1555 42.113 38.8607 42.1497 57.5659C42.1497 58.7034 41.8171 59.0153 40.7036 58.9928C37.334 58.9254 33.9632 58.9254 30.5913 58.9928C29.5063 59.0127 29.04 58.7596 29.1383 57.5892C29.2365 56.4188 29.1555 55.2458 29.1555 53.6625ZM12.8365 41.4514C12.8546 46.3127 16.0769 49.6909 20.765 49.7617C25.5153 49.8334 29.1409 46.159 29.0728 41.3443C29.0047 36.5297 25.5317 33.0185 20.859 33.0185C16.1863 33.0185 12.8175 36.5599 12.8365 41.4514Z" fill="#0B1237"/>
<path d="M400.131 59.9159C393.193 59.9012 386.74 58.1625 380.751 54.615C379.649 53.9628 379.607 53.4446 380.2 52.4694C381.939 49.619 383.666 46.7504 385.302 43.836C385.841 42.8747 386.146 43.3437 386.783 43.6797C391.399 46.1146 396.078 48.3967 401.507 48.2101C401.573 48.2101 401.639 48.2101 401.705 48.2101C405.384 48.1048 407.929 46.518 408.538 43.9492C409.16 41.3207 407.689 38.9393 404.41 37.0537C400.299 34.6939 395.724 33.3326 391.636 30.8882C385.58 27.269 382.617 22.0976 383.44 15.0959C384.192 8.70403 388.368 4.88186 394.147 2.90729C403.208 -0.189318 411.778 1.56845 419.961 6.13259C420.9 6.6569 420.564 7.11556 420.238 7.67183C418.548 10.5508 416.814 13.4046 415.149 16.2974C414.658 17.1491 414.333 16.7293 413.788 16.3838C410.937 14.5526 407.9 13.2077 404.449 13.0073C402.801 12.9145 401.15 13.1334 399.583 13.6526C398.049 14.1527 396.867 15.1071 396.539 16.7319C396.189 18.4594 396.76 19.9149 398.142 21.1233C400.795 23.4451 404.137 24.3365 407.258 25.6796C411.758 27.6171 415.996 29.8197 419.041 33.9105C423.241 39.5543 423.92 51.2515 414.373 56.5619C409.931 59.0323 405.159 59.9669 400.131 59.9159Z" fill="#04BE62"/>
<path d="M140.837 59.9661C133.305 59.9177 126.913 57.2021 123.188 50.0838C116.853 37.9832 125.203 23.7242 138.959 22.8932C146.49 22.4389 153.012 24.4541 157.401 30.9712C161.457 36.996 161.677 43.5407 158.602 49.9741C155.585 56.2899 150.121 59.295 143.241 59.8512C142.514 59.91 141.787 59.9221 140.837 59.9661ZM148.239 41.4677C148.252 36.698 145.438 33.5754 141.086 33.5348C136.63 33.4925 133.588 36.6971 133.617 41.4055C133.647 46.1139 136.499 49.1725 140.928 49.2191C145.357 49.2658 148.225 46.2115 148.239 41.4677Z" fill="#0B1237"/>
<path d="M238.584 44.1134C230.92 44.1526 223.256 44.1906 215.591 44.2275C213.289 44.2378 212.979 44.7656 214.233 46.8188C215.818 49.4101 218.284 50.5045 221.224 50.6323C224.942 50.7947 228.464 50.0933 231.552 47.9088C232.328 47.3612 232.609 47.5564 233.028 48.2543C234.217 50.2332 235.392 52.2277 236.726 54.109C237.45 55.1299 237.231 55.6594 236.34 56.3306C233.779 58.2559 230.858 59.2 227.729 59.517C222.458 60.0517 217.215 60.4075 212.115 58.2861C206.201 55.8261 202.541 51.5427 201.536 45.2528C200.425 38.3003 201.651 31.9585 207.305 27.08C214.63 20.7572 228.682 21.4422 234.843 28.4499C236.481 30.3122 237.551 32.4811 238.226 34.8677C238.41 35.5172 238.273 36.3283 238.989 36.7749C238.677 38.1215 238.571 39.4327 238.926 40.8294C239.195 41.8892 239.052 43.0545 238.584 44.1134ZM220.289 37.3683C222.066 37.3683 223.846 37.3208 225.62 37.3856C226.703 37.4253 226.811 36.9589 226.603 36.0709C225.969 33.3673 223.68 31.5949 220.685 31.5413C217.316 31.48 214.706 33.2179 213.968 35.9232C213.654 37.0737 213.968 37.4469 215.156 37.3916C216.864 37.3078 218.58 37.3692 220.289 37.3683Z" fill="#0B1237"/>
<path d="M158.814 23.7277C163.111 23.7277 167.27 23.7821 171.427 23.694C172.655 23.6681 172.801 24.442 173.086 25.2263C175.467 31.7812 177.846 38.338 180.221 44.8969C180.418 45.4419 180.63 45.9818 180.847 46.557C181.671 46.2418 181.623 45.4747 181.828 44.9159C184.241 38.372 186.654 31.8255 188.974 25.2496C189.397 24.0499 189.965 23.6672 191.224 23.6949C195.188 23.7812 199.147 23.7277 203.117 23.7277C203.281 24.4947 202.839 25.038 202.594 25.628C198.186 36.1944 193.754 46.7514 189.38 57.3282C188.895 58.5029 188.377 59.0558 186.971 59.0143C182.88 58.8908 178.784 58.9521 174.688 58.9849C173.808 58.9918 173.299 58.8122 172.913 57.8845C168.293 46.7652 163.613 35.6693 158.952 24.5655C158.882 24.3971 158.889 24.1907 158.814 23.7277Z" fill="#0B1237"/>
<path d="M75.076 59.9366C68.9805 60.0602 64.6422 59.1903 60.5624 57.075C59.4257 56.485 58.9939 55.9478 59.7273 54.6677C60.8382 52.7285 61.8008 50.6943 62.7273 48.6619C63.1487 47.7359 63.4796 47.7204 64.3 48.2542C67.4422 50.3005 70.8713 51.2394 74.6416 50.6486C75.3742 50.5337 76.0524 50.3203 76.6643 49.9083C78.4534 48.699 78.4577 46.9361 76.6514 45.7622C75.4147 44.9589 73.9798 44.654 72.575 44.318C70.0043 43.7047 67.5214 42.9066 65.2644 41.465C59.3387 37.6817 59.3499 29.3334 65.3764 25.7047C70.9618 22.3412 77.0435 22.3101 83.2157 23.3993C85.2211 23.7534 87.18 24.3114 89.0639 25.1674C90.0627 25.6218 90.3867 25.9785 89.7533 27.009C88.7191 28.6907 87.7401 30.4157 86.8689 32.1864C86.3328 33.2756 85.7985 33.4233 84.7643 32.8247C82.8632 31.7234 80.8294 30.9598 78.5714 31.0635C77.7183 31.1032 76.8392 31.0713 76.0222 31.2734C74.8157 31.5714 73.4256 31.891 73.3662 33.4855C73.3102 34.9755 74.4296 35.6976 75.6758 36.0932C77.4304 36.6495 79.2281 37.0693 80.9983 37.5789C82.7055 38.0712 84.4144 38.5575 85.9898 39.4187C93.1376 43.3273 91.8785 54.0164 85.5917 57.2883C81.8109 59.2534 77.7545 59.9496 75.076 59.9366Z" fill="#0B1237"/>
<path d="M110.871 59.9292C106.151 59.8368 101.641 58.9238 97.7962 56.0613C91.6671 51.4971 90.0874 45.0577 91.1069 37.9126C92.1264 30.7676 96.5078 26.1775 103.292 23.9922C109.648 21.945 115.897 22.3648 121.925 25.4001C123.142 26.0134 123.405 26.5394 122.508 27.7236C120.957 29.7716 119.527 31.9181 118.152 34.0913C117.557 35.0311 117.197 35.0415 116.234 34.4697C112.275 32.122 108.134 32.635 105.421 35.6401C102.782 38.5631 102.538 43.2179 104.856 46.4553C107.304 49.875 112.22 50.8458 115.998 48.4938C117.151 47.7769 117.678 47.7708 118.403 48.9645C119.701 51.105 121.139 53.165 122.59 55.2087C123.206 56.0768 123.264 56.5147 122.22 57.1531C118.709 59.3012 114.896 60.0294 110.871 59.9292Z" fill="#0B1237"/>
<path d="M238.584 44.1152C239.052 43.0562 239.194 41.891 238.929 40.8328C238.574 39.4361 238.68 38.1249 238.992 36.7783C239.009 32.9449 239.071 29.1107 239.016 25.2781C238.999 24.087 239.285 23.6646 240.55 23.7C243.787 23.7907 247.031 23.8097 250.267 23.6948C251.725 23.643 252.335 23.9885 252.116 25.5208C251.996 26.3518 252.094 27.2147 252.094 27.7234C252.895 27.0748 253.84 26.3146 254.779 25.5459C258.695 22.3387 265.351 21.8593 269.726 24.4152C270.452 24.8393 270.588 25.2073 270.222 25.9441C268.826 28.7807 267.439 31.6216 266.129 34.4954C265.72 35.3911 265.363 35.3168 264.678 34.8409C258.555 30.5488 251.824 34.9955 252.063 42.2192C252.235 47.305 252.05 52.4004 252.126 57.4906C252.145 58.7232 251.826 59.0454 250.599 59.0117C247.362 58.9184 244.118 58.9054 240.882 59.0117C239.451 59.0601 238.946 58.7612 239 57.2038C239.131 53.4395 239.06 49.6683 239.026 45.8997C239.017 45.2959 239.37 44.5479 238.584 44.1152Z" fill="#0B1237"/>
<path d="M57.5473 41.5202C57.5473 46.8056 57.5017 52.0918 57.5784 57.3764C57.5973 58.6997 57.2086 59.04 55.9185 59.0054C52.5515 58.9191 49.1793 58.9329 45.8105 58.9994C44.7591 59.0201 44.4937 58.7092 44.4971 57.6744C44.5344 46.8393 44.5344 36.0036 44.4971 25.1674C44.4971 24.0738 44.747 23.6739 45.9139 23.699C49.2818 23.775 52.654 23.7853 56.0219 23.699C57.2647 23.6679 57.5853 24.0617 57.5732 25.2676C57.5137 30.6834 57.5473 36.1018 57.5473 41.5202Z" fill="#0B1237"/>
<path d="M51.1693 16.5214C47.0395 16.5257 43.7578 13.2192 43.8052 9.10768C43.8517 5.27515 47.2283 1.86327 50.99 1.84772C55.1473 1.83131 58.5247 5.08598 58.5394 9.12236C58.554 13.2641 55.3128 16.5179 51.1693 16.5214Z" fill="#0B1237"/>
</svg>
