<svg width="24" height="25" viewBox="0 0 24 25" fill="none" xmlns="http://www.w3.org/2000/svg">
<path d="M3.8 9.5C3.8 8.53457 3.8017 7.89099 3.86609 7.41205C3.92739 6.95614 4.03199 6.77095 4.15147 6.65147C4.27095 6.53199 4.45614 6.42739 4.91205 6.36609C5.39099 6.3017 6.03457 6.3 7 6.3H17C17.9654 6.3 18.609 6.3017 19.0879 6.36609C19.5439 6.42739 19.729 6.53199 19.8485 6.65147C19.968 6.77095 20.0726 6.95614 20.1339 7.41205C20.1983 7.89099 20.2 8.53457 20.2 9.5V15.5C20.2 16.4654 20.1983 17.109 20.1339 17.5879C20.0726 18.0439 19.968 18.229 19.8485 18.3485C19.729 18.468 19.5439 18.5726 19.0879 18.6339C18.609 18.6983 17.9654 18.7 17 18.7H7C6.03457 18.7 5.39099 18.6983 4.91205 18.6339C4.45614 18.5726 4.27095 18.468 4.15147 18.3485C4.03199 18.229 3.92739 18.0439 3.86609 17.5879C3.8017 17.109 3.8 16.4654 3.8 15.5V9.5Z" stroke="#1C274C" stroke-width="1.6"/>
</svg>
