<svg width="138" height="30" viewBox="0 0 138 30" fill="none" xmlns="http://www.w3.org/2000/svg">
<path d="M136.385 10.7549C137.46 11.6248 136.321 13.0008 135.372 12.3049C134.202 11.5616 131.545 11.2137 131.213 12.8584C130.785 15.4524 137.666 13.9657 137.555 18.1727C137.444 22.1902 131.624 22.285 129.441 20.4819C128.919 20.055 128.935 19.359 129.22 18.9319C129.631 18.5208 130.09 18.3784 130.627 18.8212C131.924 19.7069 135.262 20.3713 135.499 18.1254C135.293 15.7845 128.714 17.1921 129.204 12.7004C129.568 9.63196 134.202 9.07834 136.385 10.7549ZM126.008 11.3717V17.0973C126.008 23.0125 116.471 23.0125 116.471 17.0973V11.3717C116.471 9.94835 118.543 9.88502 118.543 11.3717V17.0973C118.543 20.213 123.936 20.4029 123.936 17.0973V11.3717C123.936 9.96405 126.008 9.85336 126.008 11.3717ZM60.7009 9.93252C63.4687 10.0748 66.3631 11.9885 66.3631 15.7371C66.3631 19.4855 63.4687 21.431 60.7009 21.431C57.7748 21.5575 54.7381 19.6121 54.7381 15.7371C54.7381 11.8462 57.7748 9.93252 60.7009 9.93252ZM74.6354 10.3278C78.6528 10.3278 79.4752 15.7054 76.1222 17.0498L78.2257 19.6121C79.0481 20.83 77.4032 22.0003 76.4543 20.7983L74.066 17.382H71.5828V20.2447C71.5828 21.6207 69.4792 21.6682 69.4792 20.2764V11.2927C69.4792 10.7391 69.9063 10.3278 70.4283 10.3278H74.6354ZM41.863 10.1856C42.3217 10.1856 42.5906 10.4545 42.8595 10.7549L46.339 15.4524L49.9452 10.5809C50.4671 9.93253 51.7483 10.1856 51.7483 11.2769V20.1815C51.7483 20.8774 51.3054 21.2728 50.7993 21.2728C50.2299 21.2728 49.787 20.8774 49.787 20.1815V14.3294L47.1616 17.6509C46.5921 18.3467 45.8804 18.3467 45.3585 17.6509L43.0018 14.3294V20.1815C43.0018 20.8774 42.4324 21.2728 41.863 21.2728C41.3569 21.2728 40.9141 20.8774 40.9141 20.1815V11.2769C40.9141 10.4545 41.61 10.1856 41.863 10.1856ZM86.1026 10.1856C88.1588 10.1856 90.0093 11.5616 90.0093 14.2029C90.0093 16.7018 88.1588 18.0937 86.1026 18.0937H83.4613V20.1815C83.4613 20.8774 83.0184 21.2728 82.449 21.2728C81.9271 21.2728 81.3735 20.8774 81.3735 20.1815V11.2769C81.3735 10.7549 81.7848 10.1856 82.449 10.1856H86.1026ZM101.208 10.3278C101.761 10.3278 102.188 10.7391 102.188 11.3085V20.2922C102.188 20.8457 101.761 21.2728 101.208 21.2728C100.638 21.2728 100.132 20.8457 100.132 20.2922V16.8284H94.9761V20.2922C94.9761 20.8457 94.5649 21.2728 94.0113 21.2728C93.2996 21.2728 92.8883 20.8457 92.8883 20.2922V11.3085C92.8883 10.7391 93.2996 10.3278 94.0113 10.3278C94.5649 10.3278 94.9761 10.7391 94.9761 11.3085V14.7565H100.132V11.3085C100.132 10.7391 100.638 10.3278 101.208 10.3278ZM112.216 10.3278C113.671 10.3278 113.64 12.384 112.216 12.384H107.661V14.7565H111.647C113.055 14.7565 113.055 16.8284 111.647 16.8284H107.661V19.2008H112.485C113.924 19.2008 114.035 21.2728 112.485 21.2728H106.538C105.985 21.2728 105.558 20.8457 105.558 20.2922V11.3085C105.558 10.7391 105.985 10.3278 106.538 10.3278H112.216ZM60.5268 11.9885C58.7554 11.9885 56.8259 13.2382 56.8259 15.7371C56.8259 18.2202 58.7554 19.4855 60.5268 19.4855C62.3458 19.4855 64.2912 18.2202 64.2912 15.7371C64.2912 13.2382 62.3458 11.9885 60.5268 11.9885ZM86.1026 12.1784H83.4613V16.1167H86.1026C87.1623 16.1167 88.0006 15.1835 88.0006 14.2029C88.0006 13.0958 87.1623 12.1784 86.1026 12.1784ZM74.6354 12.2416H71.5828V15.5631H74.6354C76.6915 15.5631 76.818 12.2416 74.6354 12.2416Z" fill="#CCCCCC"/>
<path d="M28.3677 18.6292C26.8257 24.8242 21.1838 29.2317 14.539 29.2317C7.86407 29.2317 2.27079 24.5633 0.791992 18.3427C2.57017 18.3427 4.2325 18.3509 5.00425 18.3509C5.36831 18.3509 5.43901 18.3572 5.46007 18.3557C6.04076 18.3271 6.76888 18.1354 7.25329 16.9575L9.09916 12.1289L13.1986 21.999C13.5672 22.7858 14.1825 22.7301 14.5495 22.7301H14.5841C15.3002 22.7301 15.6116 22.4792 15.8839 21.9602L20.5144 12.2029L22.094 16.6003L22.1903 16.8132C22.5242 17.5458 22.7645 18.2695 23.591 18.3641C23.7614 18.3835 25.7399 18.349 28.4072 18.349C28.4072 18.349 28.4072 18.3661 28.3677 18.6292Z" fill="#CCCCCC"/>
<path d="M28.8204 14.9814C28.8204 15.0551 28.8204 15.2405 28.8189 15.2405H28.8159H24.5586L22.0748 8.30221C21.8536 7.78621 21.5212 7.01265 20.5523 7.01265C19.9596 7.01265 19.4241 7.50217 19.1202 8.31002L14.6176 18.7394L10.2835 8.37328C9.85923 7.45261 9.56588 7.01961 8.71741 7.01961C8.14123 7.01961 7.7185 7.23185 7.25816 8.32252L4.68568 15.3435L0.411735 15.339C0.408724 15.2322 0.407227 15.1254 0.407227 15.0186C0.407227 7.21391 6.73464 0.90625 14.5393 0.90625C22.3441 0.90625 28.8204 7.17668 28.8204 14.9814Z" fill="#CCCCCC"/>
</svg>
