<svg width="138" height="33" viewBox="0 0 138 33" fill="none" xmlns="http://www.w3.org/2000/svg">
<path d="M0.51992 24.3274C0.355445 24.2324 0.220703 23.9995 0.220703 23.8104V8.32749C0.220703 8.1381 0.355445 7.90557 0.51992 7.81035L14.1007 0.0712809C14.2653 -0.0237603 14.5346 -0.0237603 14.6993 0.0712809L28.2792 7.81121C28.4438 7.90625 28.5784 8.13879 28.5784 8.32818V23.8111C28.5784 24 28.4438 24.2327 28.2792 24.3281L14.6993 32.0674C14.5346 32.1624 14.2653 32.1624 14.1007 32.0674L0.51992 24.3274ZM41.3347 9.86843V16.1484H44.0201C45.9691 16.1484 46.8353 15.3544 46.8353 14.0551V11.9617C46.8353 10.6626 45.9691 9.86843 44.0201 9.86843H41.3347ZM41.3347 18.1454V23.7517C41.3347 24.0884 41.2481 24.2327 40.9449 24.2327H39.6238C39.3423 24.2327 39.234 24.0884 39.234 23.7517V8.35276C39.234 8.0159 39.3423 7.87137 39.6238 7.87137H44.0201C47.7449 7.87137 48.936 9.60376 48.936 11.5768V14.4402C48.936 16.413 47.7449 18.1454 44.0201 18.1454H41.3347ZM53.8231 9.86843V15.7634H56.5083C58.4574 15.7634 59.3238 14.9934 59.3238 13.6701V11.9617C59.3238 10.6626 58.4574 9.86843 56.5083 9.86843H53.8231ZM53.8231 17.7605V23.7517C53.8231 24.0884 53.7363 24.2327 53.4331 24.2327H52.1122C51.8307 24.2327 51.7224 24.0884 51.7224 23.7517V8.35276C51.7224 8.0159 51.8307 7.87137 52.1122 7.87137H56.5083C60.2333 7.87137 61.4243 9.60376 61.4243 11.5768V14.0791C61.4243 15.5468 60.753 16.8702 58.8905 17.4478L61.4893 23.7517C61.5976 24.0404 61.4027 24.2327 61.0995 24.2327H59.8C59.4969 24.2327 59.4536 24.0404 59.3238 23.7517L56.8765 17.7605H53.8231ZM72.8088 11.7693C72.8088 10.47 71.8947 9.67595 69.8375 9.67595C67.8031 9.67595 66.889 10.47 66.889 11.7693V20.3348C66.889 21.6343 67.8031 22.4281 69.8375 22.4281C71.8947 22.4281 72.8088 21.6343 72.8088 20.3348V11.7693ZM64.6489 11.3843C64.6489 9.41127 65.9289 7.67905 69.8375 7.67905C73.7689 7.67905 75.0491 9.41127 75.0491 11.3843V20.72C75.0491 22.693 73.7689 24.4254 69.8375 24.4254C65.9289 24.4254 64.6489 22.693 64.6489 20.72V11.3843ZM87.1178 7.87137C87.4149 7.87137 87.5521 7.99184 87.5521 8.32853V9.41127C87.5521 9.74813 87.4149 9.86843 87.1178 9.86843H83.4607V23.7517C83.4607 24.0884 83.3464 24.2327 83.0491 24.2327H81.632C81.3349 24.2327 81.2206 24.0884 81.2206 23.7517V9.86843H77.5633C77.2435 9.86843 77.1292 9.74813 77.1292 9.41127V8.32853C77.1292 7.99184 77.2435 7.87137 77.5633 7.87137H87.1178ZM97.77 11.7693C97.77 10.47 96.8556 9.67595 94.7986 9.67595C92.7642 9.67595 91.8499 10.47 91.8499 11.7693V20.3348C91.8499 21.6343 92.7642 22.4281 94.7986 22.4281C96.8556 22.4281 97.77 21.6343 97.77 20.3348V11.7693ZM89.6098 11.3843C89.6098 9.41127 90.8899 7.67905 94.7986 7.67905C98.73 7.67905 100.01 9.41127 100.01 11.3843V20.72C100.01 22.693 98.73 24.4254 94.7986 24.4254C90.8899 24.4254 89.6098 22.693 89.6098 20.72V11.3843ZM113.241 23.7756C113.241 24.0884 113.154 24.2327 112.851 24.2327H111.66C111.443 24.2327 111.357 24.1605 111.27 24.0162L106.181 14.1034C105.704 13.2129 105.445 12.467 105.401 12.3708V23.7756C105.401 24.0884 105.293 24.2327 105.011 24.2327H103.799C103.517 24.2327 103.409 24.0884 103.409 23.7756V8.32853C103.409 8.0159 103.517 7.87137 103.799 7.87137H105.011C105.185 7.87137 105.293 7.94355 105.358 8.06385L110.577 18.1936C110.88 18.771 111.248 19.7333 111.248 19.7333V8.32853C111.248 8.0159 111.378 7.87137 111.66 7.87137H112.851C113.154 7.87137 113.241 8.0159 113.241 8.32853V23.7756ZM116.965 24.2327C116.683 24.2327 116.575 24.0884 116.575 23.7517V8.35276C116.575 8.0159 116.683 7.87137 116.965 7.87137H124.371C124.653 7.87137 124.783 7.99184 124.783 8.32853V9.41127C124.783 9.74813 124.653 9.86843 124.371 9.86843H118.676V14.7288H123.981C124.285 14.7288 124.415 14.8491 124.415 15.1859V16.2206C124.415 16.5334 124.285 16.6777 123.981 16.6777H118.676V22.2358H124.609C124.891 22.2358 125.021 22.3321 125.021 22.6688V23.7756C125.021 24.1126 124.891 24.2327 124.609 24.2327H116.965ZM136.957 7.87137C137.239 7.87137 137.369 7.99184 137.369 8.32853V9.41127C137.369 9.74813 137.239 9.86843 136.957 9.86843H133.492V23.7517C133.492 24.0884 133.384 24.2327 133.103 24.2327H131.76C131.478 24.2327 131.37 24.0884 131.37 23.7517V9.86843H127.905C127.602 9.86843 127.493 9.74813 127.493 9.41127V8.32853C127.493 7.99184 127.602 7.87137 127.905 7.87137H136.957Z" fill="#CCCCCC"/>
</svg>
