<svg width="138" height="22" viewBox="0 0 138 22" fill="none" xmlns="http://www.w3.org/2000/svg">
<path d="M19.2721 21.7498V16.1895H13.2168C11.5701 16.1895 10.0448 17.0539 9.20137 18.4652L7.23828 21.7498H19.2721Z" fill="#CCCCCC"/>
<path d="M0 0.388672V5.94906H15.949L19.2722 0.388672H0Z" fill="#CCCCCC"/>
<path d="M7.63304 9.0779L0.0175781 21.7489H6.50577L15.6125 6.58984H12.0297C10.2276 6.58984 8.55802 7.53465 7.63304 9.0779Z" fill="#CCCCCC"/>
<path d="M33.0764 16.4121C29.8138 16.4121 27.4131 14.0406 27.4131 10.8582C27.4131 7.70646 29.8292 5.30438 33.0918 5.30438C36.3543 5.30438 38.7704 7.73706 38.7704 10.8582C38.7704 14.01 36.3389 16.4121 33.0764 16.4121ZM33.0918 14.469C35.1539 14.469 36.6313 12.939 36.6313 10.8582C36.6313 8.80806 35.1539 7.24747 33.0918 7.24747C31.0142 7.24747 29.5368 8.80806 29.5368 10.8582C29.5368 12.939 31.0142 14.469 33.0918 14.469ZM40.9552 19.7322V8.16546H42.925V9.19055H43.0327C43.2482 8.85396 43.9869 7.96656 45.4643 7.96656C47.7265 7.96656 49.2808 9.64955 49.2808 12.1587C49.2808 14.6679 47.7419 16.4121 45.5258 16.4121C44.0946 16.4121 43.3251 15.6165 43.0635 15.1728H42.9558V19.7322H40.9552ZM45.0795 14.6067C46.3722 14.6067 47.2494 13.6122 47.2494 12.1893C47.2494 10.7205 46.3722 9.77195 45.0641 9.77195C43.7406 9.77195 42.9096 10.8276 42.9096 12.1893C42.9096 13.6887 43.833 14.6067 45.0795 14.6067ZM55.0051 16.4121C52.6197 16.4121 50.9269 14.6373 50.9269 12.2352C50.9269 9.69545 52.6351 7.96656 55.0051 7.96656C57.6059 7.96656 59.0217 9.87905 59.0217 12.1434V12.7707H52.866C52.9275 13.9947 53.7739 14.8209 55.0667 14.8209C56.0516 14.8209 56.8057 14.3619 57.0827 13.704H58.9448C58.5447 15.3411 57.0981 16.4121 55.0051 16.4121ZM52.8968 11.3631H57.1134C57.0211 10.2768 56.1747 9.55775 55.0051 9.55775C53.8817 9.55775 53.0199 10.3533 52.8968 11.3631ZM61.1757 16.2132V8.16546H63.084V9.14465H63.1917C63.5149 8.54796 64.3151 7.96656 65.4693 7.96656C67.2853 7.96656 68.3933 9.23645 68.3933 10.95V16.2132H66.3927V11.4702C66.3927 10.491 65.7617 9.83315 64.8383 9.83315C63.8688 9.83315 63.1763 10.5981 63.1763 11.6079V16.2132H61.1757ZM70.3779 16.2132V14.3925L75.9797 7.36986V7.26277H70.578V5.50328H78.5343V7.30867L72.9326 14.3313V14.4537H78.5651V16.2132H70.3779ZM83.9816 16.4121C81.5962 16.4121 79.9034 14.6373 79.9034 12.2352C79.9034 9.69545 81.6116 7.96656 83.9816 7.96656C86.5824 7.96656 87.9982 9.87905 87.9982 12.1434V12.7707H81.8425C81.904 13.9947 82.7504 14.8209 84.0431 14.8209C85.0281 14.8209 85.7821 14.3619 86.0592 13.704H87.9213C87.5211 15.3411 86.0745 16.4121 83.9816 16.4121ZM81.8732 11.3631H86.0899C85.9976 10.2768 85.1512 9.55775 83.9816 9.55775C82.8582 9.55775 81.9964 10.3533 81.8732 11.3631ZM90.1522 19.7322V8.16546H92.122V9.19055H92.2297C92.4452 8.85396 93.1839 7.96656 94.6612 7.96656C96.9235 7.96656 98.4778 9.64955 98.4778 12.1587C98.4778 14.6679 96.9389 16.4121 94.7228 16.4121C93.2916 16.4121 92.5221 15.6165 92.2605 15.1728H92.1528V19.7322H90.1522ZM94.2765 14.6067C95.5692 14.6067 96.4464 13.6122 96.4464 12.1893C96.4464 10.7205 95.5692 9.77195 94.2611 9.77195C92.9376 9.77195 92.1066 10.8276 92.1066 12.1893C92.1066 13.6887 93.03 14.6067 94.2765 14.6067ZM100.632 19.7322V8.16546H102.602V9.19055H102.709C102.925 8.85396 103.663 7.96656 105.141 7.96656C107.403 7.96656 108.957 9.64955 108.957 12.1587C108.957 14.6679 107.418 16.4121 105.202 16.4121C103.771 16.4121 103.002 15.6165 102.74 15.1728H102.632V19.7322H100.632ZM104.756 14.6067C106.049 14.6067 106.926 13.6122 106.926 12.1893C106.926 10.7205 106.049 9.77195 104.741 9.77195C103.417 9.77195 102.586 10.8276 102.586 12.1893C102.586 13.6887 103.51 14.6067 104.756 14.6067ZM114.682 16.4121C112.296 16.4121 110.604 14.6373 110.604 12.2352C110.604 9.69545 112.312 7.96656 114.682 7.96656C117.282 7.96656 118.698 9.87905 118.698 12.1434V12.7707H112.543C112.604 13.9947 113.451 14.8209 114.743 14.8209C115.728 14.8209 116.482 14.3619 116.759 13.704H118.621C118.221 15.3411 116.775 16.4121 114.682 16.4121ZM112.573 11.3631H116.79C116.698 10.2768 115.851 9.55775 114.682 9.55775C113.558 9.55775 112.696 10.3533 112.573 11.3631ZM122.822 16.2132C121.406 16.2132 120.606 15.3717 120.606 13.9488V4.73828H122.607V13.7652C122.607 14.2242 122.837 14.469 123.253 14.469H123.576V16.2132H122.822ZM126.5 7.09447C125.776 7.09447 125.268 6.65077 125.268 5.93167C125.268 5.24318 125.776 4.78418 126.5 4.78418C127.223 4.78418 127.731 5.24318 127.731 5.93167C127.731 6.65077 127.223 7.09447 126.5 7.09447ZM125.499 16.2132V8.16546H127.5V16.2132H125.499ZM129.931 16.2132V8.16546H131.839V9.14465H131.947C132.27 8.54796 133.07 7.96656 134.224 7.96656C136.04 7.96656 137.148 9.23645 137.148 10.95V16.2132H135.148V11.4702C135.148 10.491 134.517 9.83315 133.594 9.83315C132.624 9.83315 131.931 10.5981 131.931 11.6079V16.2132H129.931Z" fill="#CCCCCC"/>
</svg>
