<svg width="444" height="102" viewBox="0 0 444 102" fill="none" xmlns="http://www.w3.org/2000/svg">
<path d="M0 100.243V4.57206H41.3894C68.1229 4.57206 81.2861 9.18596 81.2861 27.6416C81.2861 45.5543 67.9872 46.0972 57.8094 47.0471V52.7466C72.3297 53.2894 88.3426 54.2393 88.3426 74.3234C88.3426 96.8501 68.1229 100.243 42.3393 100.243H0ZM24.8336 79.2087H43.6963C56.3167 79.2087 63.3733 79.6158 63.3733 69.5738C63.3733 59.5317 55.9096 60.0746 43.6963 60.0746H24.8336V79.2087ZM24.8336 40.8047H43.832C51.4314 40.8047 57.4023 41.3476 57.4023 32.6626C57.4023 24.249 51.9742 24.3847 43.832 24.3847H24.8336V40.8047Z" fill="#0B1237"/>
<path d="M125.194 101.6C107.417 101.6 96.5611 89.7935 96.5611 68.081V31.5769H119.902V64.2813C119.902 76.6303 123.295 81.1085 133.608 81.1085C144.871 81.1085 152.471 75.8161 152.471 56.4106V31.5769H175.676V100.243H152.471V92.5076L156.813 79.6158H151.114C148.4 91.829 139.85 101.6 125.194 101.6Z" fill="#0B1237"/>
<path d="M186.285 100.243V79.7515H205.555V52.0681H188.728V31.5769H215.19C222.654 31.5769 226.996 35.3766 226.996 42.976V79.7515H246.402V100.243H186.285ZM201.077 13.9356C201.077 6.0648 206.369 2.26511 214.647 2.26511C222.925 2.26511 228.624 6.0648 228.624 13.9356C228.624 21.942 222.925 25.606 214.647 25.606C206.369 25.606 201.077 21.942 201.077 13.9356Z" fill="#0B1237"/>
<path d="M281.053 101.6C260.969 101.6 251.47 85.0439 251.47 65.7741C251.47 46.64 260.969 30.2199 281.053 30.2199C298.152 30.2199 304.259 38.9049 307.787 47.7256H313.622L309.144 34.8338V0.500977H332.349V100.243H309.144V96.9857L313.622 83.9583H307.787C304.259 92.9147 298.152 101.6 281.053 101.6ZM274.675 65.7741C274.675 76.4946 280.646 81.1085 292.045 81.1085C303.444 81.1085 309.144 76.6303 309.144 65.7741C309.144 55.1893 303.444 50.7111 292.045 50.7111C280.646 50.7111 274.675 55.1893 274.675 65.7741Z" fill="#0B1237"/>
<path d="M342.119 100.243V79.7515H361.117V20.8564H344.561V0.500977H372.788C380.251 0.500977 384.458 4.43636 384.458 11.9V79.7515H403.456V100.243H342.119Z" fill="#0B1237"/>
<path d="M427.959 101.6C418.189 101.6 412.353 94.6788 412.353 86.4009C412.353 78.3944 418.189 71.6093 427.959 71.6093C437.459 71.6093 443.837 78.3944 443.837 86.4009C443.837 94.6788 437.459 101.6 427.959 101.6ZM412.082 46.3686C412.082 38.3621 417.917 31.5769 427.688 31.5769C437.187 31.5769 443.565 38.3621 443.565 46.3686C443.565 54.6464 437.187 61.5673 427.688 61.5673C417.917 61.5673 412.082 54.6464 412.082 46.3686Z" fill="#0B1237"/>
</svg>
