<svg width="109" height="25" viewBox="0 0 109 25" fill="none" xmlns="http://www.w3.org/2000/svg">
<path d="M0.949219 24.1286V0.984842H10.9618C17.4289 0.984842 20.6132 2.101 20.6132 6.56562C20.6132 10.8989 17.3961 11.0302 14.934 11.26V12.6388C18.4466 12.7701 22.3203 12.9999 22.3203 17.8585C22.3203 23.3079 17.4289 24.1286 11.1916 24.1286H0.949219ZM6.95676 19.0403H11.5199C14.5729 19.0403 16.2799 19.1388 16.2799 16.7095C16.2799 14.2802 14.4744 14.4115 11.5199 14.4115H6.95676V19.0403ZM6.95676 9.74994H11.5527C13.3911 9.74994 14.8355 9.88125 14.8355 7.78026C14.8355 5.74492 13.5224 5.77774 11.5527 5.77774H6.95676V9.74994Z" fill="white"/>
<path d="M31.2352 24.4569C26.9347 24.4569 24.3085 21.6009 24.3085 16.3484V7.51763H29.9549V15.4292C29.9549 18.4166 30.7756 19.4999 33.2705 19.4999C35.9953 19.4999 37.8336 18.2196 37.8336 13.5252V7.51763H43.4472V24.1286H37.8336V22.2574L38.8841 19.1388H37.5053C36.8488 22.0933 34.7806 24.4569 31.2352 24.4569Z" fill="white"/>
<path d="M46.0137 24.1286V19.1716H50.6753V12.4747H46.6046V7.51763H53.0061C54.8116 7.51763 55.8621 8.43682 55.8621 10.2752V19.1716H60.5566V24.1286H46.0137ZM49.592 3.24998C49.592 1.34595 50.8723 0.426764 52.8748 0.426764C54.8773 0.426764 56.2561 1.34595 56.2561 3.24998C56.2561 5.18684 54.8773 6.0732 52.8748 6.0732C50.8723 6.0732 49.592 5.18684 49.592 3.24998Z" fill="white"/>
<path d="M68.9393 24.4569C64.0807 24.4569 61.7827 20.4519 61.7827 15.7903C61.7827 11.1615 64.0807 7.18935 68.9393 7.18935C73.0756 7.18935 74.5529 9.29035 75.4064 11.4242H76.818L75.7347 8.30551V0H81.3483V24.1286H75.7347V23.3408L76.818 20.1893H75.4064C74.5529 22.3559 73.0756 24.4569 68.9393 24.4569ZM67.3963 15.7903C67.3963 18.3837 68.8408 19.4999 71.5983 19.4999C74.3559 19.4999 75.7347 18.4166 75.7347 15.7903C75.7347 13.2297 74.3559 12.1464 71.5983 12.1464C68.8408 12.1464 67.3963 13.2297 67.3963 15.7903Z" fill="white"/>
<path d="M83.7116 24.1286V19.1716H88.3076V4.92421H84.3026V0H91.1308C92.9363 0 93.954 0.952014 93.954 2.75756V19.1716H98.5499V24.1286H83.7116Z" fill="white"/>
<path d="M104.477 24.4569C102.114 24.4569 100.702 22.7827 100.702 20.7802C100.702 18.8433 102.114 17.2019 104.477 17.2019C106.775 17.2019 108.318 18.8433 108.318 20.7802C108.318 22.7827 106.775 24.4569 104.477 24.4569ZM100.637 11.0959C100.637 9.15904 102.048 7.51763 104.412 7.51763C106.71 7.51763 108.253 9.15904 108.253 11.0959C108.253 13.0984 106.71 14.7726 104.412 14.7726C102.048 14.7726 100.637 13.0984 100.637 11.0959Z" fill="white"/>
</svg>
