<svg width="589" height="92" viewBox="0 0 589 92" fill="none" xmlns="http://www.w3.org/2000/svg">
<path d="M1.33647 134.364V135.027H2H58.187C75.2923 135.027 90.6842 133.908 101.811 128.983C107.392 126.512 111.928 123.074 115.063 118.319C118.199 113.563 119.9 107.542 119.9 99.9671C119.9 93.2164 118.554 88.0162 116.186 84.0124C113.815 80.0042 110.449 77.2434 106.492 75.3283C98.7964 71.604 88.7973 71.0526 79.3804 70.6943V64.3747C79.6749 64.3478 79.9715 64.3209 80.2701 64.2938C86.6332 63.7167 93.8861 63.0588 99.6757 59.9183C102.824 58.2108 105.552 55.7663 107.486 52.2095C109.417 48.6587 110.535 44.0409 110.535 38.0173C110.535 31.8178 109.43 26.7255 107.171 22.5835C104.907 18.4344 101.511 15.2856 97.01 12.9373C88.0507 8.26287 74.6661 6.73906 56.9264 6.73906H2H1.33647V7.40259V134.364ZM130.143 42.5763H129.479V43.2398V91.6831C129.479 106.193 133.107 117.488 139.795 125.165C146.494 132.854 156.191 136.828 168.141 136.828C178.025 136.828 185.886 133.529 191.732 128.143C197.445 122.88 201.2 115.655 203.067 107.654H209.178L203.71 123.887L203.675 123.99V124.099V134.364V135.027H204.339H235.133H235.797V134.364V43.2398V42.5763H235.133H204.339H203.675V43.2398V76.1957C203.675 89.0085 201.162 97.0056 196.93 101.802C192.718 106.576 186.684 108.308 179.307 108.308C172.54 108.308 168.246 106.837 165.597 103.536C162.913 100.192 161.781 94.8144 161.781 86.6407V43.2398V42.5763H161.118H130.143ZM248.549 134.364V135.027H249.213H328.991H329.654V134.364V107.171V106.507H328.991H303.902V58.3671C303.902 53.1987 302.422 49.2194 299.574 46.5385C296.732 43.8639 292.628 42.5763 287.571 42.5763H252.454H251.791V43.2398V70.4329V71.0964H252.454H274.121V106.507H249.213H248.549V107.171V134.364ZM411.591 47.5619V47.6739L411.627 47.7796L417.264 64.0066H410.901C408.555 58.2449 405.327 52.4891 399.882 48.1462C394.294 43.6898 386.44 40.7754 374.976 40.7754C361.445 40.7754 351.432 46.3184 344.822 55.1094C338.229 63.8773 335.054 75.8265 335.054 88.6217C335.054 101.506 338.228 113.544 344.82 122.379C351.43 131.238 361.443 136.828 374.976 136.828C386.44 136.828 394.295 133.914 399.883 129.434C405.33 125.067 408.557 119.266 410.904 113.417H417.267L411.627 129.826L411.591 129.931V130.042V134.364V135.027H412.254H443.049H443.713V134.364V2V1.33647H443.049H412.254H411.591V2V47.5619ZM455.35 134.364V135.027H456.014H537.413H538.076V134.364V107.171V106.507H537.413H512.864V17.1273C512.864 12.0518 511.432 8.07552 508.632 5.37207C505.837 2.67229 501.777 1.33647 496.713 1.33647H459.255H458.592V2V29.013V29.6765H459.255H480.562V106.507H456.014H455.35V107.171V134.364ZM59.9879 105.787H35.6194V81.7216H59.9879C60.7992 81.7216 61.5933 81.7198 62.3701 81.718C65.4862 81.711 68.3242 81.7046 70.8766 81.8166C74.0669 81.9565 76.7512 82.28 78.9142 82.9938C81.0624 83.7027 82.6651 84.7859 83.7443 86.4356C84.831 88.0966 85.4369 90.408 85.4369 93.6641C85.4369 96.9258 84.8627 99.2526 83.8129 100.932C82.772 102.598 81.2184 103.699 79.1082 104.427C76.9813 105.161 74.3162 105.507 71.1013 105.664C68.3796 105.796 65.3059 105.792 61.8768 105.788C61.2587 105.787 60.6291 105.787 59.9879 105.787ZM60.168 54.8222H35.6194V34.3588H60.168C60.335 34.3588 60.5011 34.3587 60.6662 34.3587C63.1797 34.3581 65.4607 34.3575 67.4928 34.5034C69.6597 34.659 71.4873 34.9783 72.9629 35.6108C74.4201 36.2353 75.5354 37.165 76.2993 38.5705C77.0721 39.9925 77.5131 41.9533 77.5131 44.6805C77.5131 47.4928 77.0287 49.4808 76.2069 50.8984C75.394 52.3006 74.2181 53.2017 72.7136 53.7868C71.1912 54.3788 69.3386 54.6443 67.2019 54.7555C65.5482 54.8417 63.7645 54.8344 61.866 54.8267C61.3097 54.8245 60.7436 54.8222 60.168 54.8222ZM286.851 3.67758C281.268 3.67758 276.595 4.95743 273.306 7.65491C269.996 10.3698 268.178 14.4459 268.178 19.8286C268.178 25.2983 269.994 29.3772 273.308 32.0716C276.599 34.747 281.273 35.9796 286.851 35.9796C292.428 35.9796 297.23 34.747 300.652 32.0801C304.1 29.3929 306.063 25.315 306.063 19.8286C306.063 14.4292 304.099 10.354 300.655 7.64634C297.234 4.95738 292.433 3.67758 286.851 3.67758ZM389.563 108.308C382.071 108.308 376.495 106.789 372.796 103.627C369.119 100.484 367.176 95.6125 367.176 88.6217C367.176 81.7236 369.117 76.9441 372.791 73.8681C376.49 70.7715 382.067 69.2956 389.563 69.2956C397.06 69.2956 402.543 70.7717 406.15 73.8631C409.734 76.9356 411.591 81.7144 411.591 88.6217C411.591 95.7139 409.731 100.583 406.146 103.698C402.541 106.832 397.06 108.308 389.563 108.308ZM548.556 115.995C548.556 121.644 550.549 126.857 554.236 130.661C557.928 134.47 563.282 136.828 569.93 136.828C582.898 136.828 591.664 127.35 591.664 115.995C591.664 104.984 582.883 95.7018 569.93 95.7018C563.287 95.7018 557.934 98.0121 554.242 101.728C550.553 105.44 548.556 110.52 548.556 115.995ZM569.57 42.5763C562.927 42.5763 557.574 44.8865 553.882 48.6024C550.193 52.3147 548.196 57.3942 548.196 62.8693C548.196 68.5182 550.188 73.7313 553.876 77.5354C557.568 81.3442 562.922 83.7025 569.57 83.7025C582.538 83.7025 591.303 74.2248 591.303 62.8693C591.303 51.8585 582.523 42.5763 569.57 42.5763Z" stroke="#453E97" stroke-opacity="0.89" stroke-width="1.32706"/>
</svg>
