<svg width="660" height="74" viewBox="0 0 660 74" fill="none" xmlns="http://www.w3.org/2000/svg">
<path d="M0.084203 72V2.93223H29.9646C49.2644 2.93223 58.7673 6.26316 58.7673 19.5869C58.7673 32.5187 49.1664 32.9106 41.8188 33.5964V37.711C52.3014 38.1029 63.8617 38.7887 63.8617 53.288C63.8617 69.5508 49.2644 72 30.6504 72H0.084203ZM18.0124 56.8149H31.6301C40.7411 56.8149 45.8355 57.1088 45.8355 49.8591C45.8355 42.6095 40.4472 43.0013 31.6301 43.0013H18.0124V56.8149ZM18.0124 29.0898H31.728C37.2143 29.0898 41.5249 29.4817 41.5249 23.2117C41.5249 17.1377 37.6061 17.2356 31.728 17.2356H18.0124V29.0898ZM91.6419 72.9797C78.808 72.9797 70.9705 64.4564 70.9705 48.7815V22.428H87.8211V46.0384C87.8211 54.9535 90.2703 58.1864 97.7159 58.1864C105.847 58.1864 111.334 54.3657 111.334 40.3562V22.428H128.086V72H111.334V66.4158L114.469 57.1088H110.354C108.394 65.926 102.222 72.9797 91.6419 72.9797ZM136.921 72V57.2068H150.832V37.2212H138.684V22.428H157.788C163.176 22.428 166.311 25.1711 166.311 30.6573V57.2068H180.321V72H136.921ZM147.599 9.69205C147.599 4.00988 151.42 1.26676 157.396 1.26676C163.372 1.26676 167.487 4.00988 167.487 9.69205C167.487 15.4722 163.372 18.1173 157.396 18.1173C151.42 18.1173 147.599 15.4722 147.599 9.69205ZM206.513 72.9797C192.014 72.9797 185.156 61.0275 185.156 47.116C185.156 33.3025 192.014 21.4483 206.513 21.4483C218.857 21.4483 223.266 27.7183 225.813 34.0862H230.025L226.792 24.7792V-0.00682517H243.545V72H226.792V69.6488L230.025 60.2438H225.813C223.266 66.7097 218.857 72.9797 206.513 72.9797ZM201.908 47.116C201.908 54.8555 206.219 58.1864 214.448 58.1864C222.678 58.1864 226.792 54.9535 226.792 47.116C226.792 39.4745 222.678 36.2415 214.448 36.2415C206.219 36.2415 201.908 39.4745 201.908 47.116ZM251.774 72V57.2068H265.489V14.6884H253.537V-0.00682517H273.914C279.303 -0.00682517 282.34 2.83426 282.34 8.22253V57.2068H296.055V72H251.774ZM300.405 47.116C300.405 30.2654 311.965 21.4483 327.738 21.4483C341.944 21.4483 354.288 29.2857 354.875 43.1973H338.025C337.535 39.4745 333.91 36.2415 327.738 36.2415C321.86 36.2415 317.158 39.9643 317.158 47.116C317.158 54.3657 321.86 58.1864 327.738 58.1864C333.91 58.1864 337.535 54.9535 338.025 51.2307H354.875C354.288 65.1422 341.944 72.9797 327.738 72.9797C311.965 72.9797 300.405 64.0646 300.405 47.116ZM361.478 47.116C361.478 29.5797 374.116 21.4483 389.693 21.4483C405.074 21.4483 417.81 29.5797 417.81 47.116C417.81 64.8483 405.074 72.9797 389.693 72.9797C374.116 72.9797 361.478 64.8483 361.478 47.116ZM378.231 47.116C378.231 54.5616 382.836 58.1864 389.693 58.1864C396.355 58.1864 400.96 54.5616 400.96 47.116C400.96 39.7684 396.355 36.2415 389.693 36.2415C382.836 36.2415 378.231 39.7684 378.231 47.116ZM426.721 72V22.428H443.473V28.0122L440.338 37.3192H444.453C446.412 28.502 452.487 21.4483 463.067 21.4483C475.901 21.4483 483.836 29.9715 483.836 45.6465V72H466.986V48.3896C466.986 39.4745 464.537 36.2415 457.091 36.2415C448.96 36.2415 443.473 40.0623 443.473 54.0718V72H426.721ZM492.543 34.0862C492.543 11.0636 507.141 1.56067 525.657 1.56067C542.801 1.56067 554.459 9.69205 554.459 25.465C554.459 47.4099 529.282 51.5246 497.834 56.521V61.2235L511.255 56.325H554.459V72H493.523V41.9237C516.546 40.1602 536.727 36.2415 536.727 25.0731C536.727 21.4483 534.572 17.1377 525.363 17.1377C514.488 17.1377 510.374 22.7219 510.374 34.0862H492.543ZM574.139 72.9797C567.085 72.9797 562.872 67.9833 562.872 62.0072C562.872 56.2271 567.085 51.3287 574.139 51.3287C580.997 51.3287 585.601 56.2271 585.601 62.0072C585.601 67.9833 580.997 72.9797 574.139 72.9797ZM624.674 73.3716C603.023 73.3716 589.895 59.0682 589.895 37.4171C589.895 15.8641 603.023 1.56067 624.674 1.56067C646.129 1.56067 659.257 15.8641 659.257 37.4171C659.257 59.0682 646.129 73.3716 624.674 73.3716ZM607.725 37.4171C607.725 40.3562 608.019 43.0013 608.509 45.2546L633.981 19.293C631.434 17.7255 628.299 16.9417 624.674 16.9417C614.289 16.9417 607.725 23.3097 607.725 37.4171ZM615.269 55.4433C617.816 57.1088 621.049 57.8925 624.674 57.8925C634.96 57.8925 641.426 51.7205 641.426 37.4171C641.426 34.4781 641.132 31.9309 640.643 29.6776L615.269 55.4433Z" fill="#0B1237"/>
</svg>
