<svg width="504" height="92" viewBox="0 0 504 92" fill="none" xmlns="http://www.w3.org/2000/svg">
<path d="M-87.6635 134.364V135.027H-87H-30.813C-13.7077 135.027 1.68423 133.908 12.8114 128.983C18.392 126.512 22.9275 123.074 26.0631 118.319C29.199 113.563 30.8999 107.542 30.8999 99.9671C30.8999 93.2164 29.554 88.0162 27.1861 84.0124C24.8154 80.0042 21.4489 77.2434 17.4917 75.3283C9.79639 71.604 -0.202675 71.0526 -9.61957 70.6943V64.3747C-9.32513 64.3478 -9.02848 64.3209 -8.72987 64.2938C-2.36678 63.7167 4.88605 63.0588 10.6757 59.9183C13.8235 58.2108 16.5516 55.7663 18.4862 52.2095C20.4174 48.6587 21.5354 44.0409 21.5354 38.0173C21.5354 31.8178 20.4301 26.7255 18.1706 22.5835C15.9072 18.4344 12.5109 15.2856 8.00998 12.9373C-0.949272 8.26287 -14.3339 6.73906 -32.0736 6.73906H-87H-87.6635V7.40259V134.364ZM41.1429 42.5763H40.4794V43.2398V91.6831C40.4794 106.193 44.1067 117.488 50.795 125.165C57.4943 132.854 67.1911 136.828 79.1412 136.828C89.0246 136.828 96.886 133.529 102.732 128.143C108.445 122.88 112.2 115.655 114.067 107.654H120.178L114.71 123.887L114.675 123.99V124.099V134.364V135.027H115.339H146.133H146.797V134.364V43.2398V42.5763H146.133H115.339H114.675V43.2398V76.1957C114.675 89.0085 112.162 97.0056 107.93 101.802C103.718 106.576 97.6844 108.308 90.3065 108.308C83.5399 108.308 79.2462 106.837 76.5972 103.536C73.9134 100.192 72.7813 94.8144 72.7813 86.6407V43.2398V42.5763H72.1178H41.1429ZM159.549 134.364V135.027H160.213H239.991H240.654V134.364V107.171V106.507H239.991H214.902V58.3671C214.902 53.1987 213.422 49.2194 210.574 46.5385C207.732 43.8639 203.628 42.5763 198.571 42.5763H163.454H162.791V43.2398V70.4329V71.0964H163.454H185.121V106.507H160.213H159.549V107.171V134.364ZM322.591 47.5619V47.6739L322.627 47.7796L328.264 64.0066H321.901C319.555 58.2449 316.327 52.4891 310.882 48.1462C305.294 43.6898 297.44 40.7754 285.976 40.7754C272.445 40.7754 262.432 46.3184 255.822 55.1094C249.229 63.8773 246.054 75.8265 246.054 88.6217C246.054 101.506 249.228 113.544 255.82 122.379C262.43 131.238 272.443 136.828 285.976 136.828C297.44 136.828 305.295 133.914 310.883 129.434C316.33 125.067 319.557 119.266 321.904 113.417H328.267L322.627 129.826L322.591 129.931V130.042V134.364V135.027H323.254H354.049H354.713V134.364V2V1.33647H354.049H323.254H322.591V2V47.5619ZM366.35 134.364V135.027H367.014H448.413H449.077V134.364V107.171V106.507H448.413H423.864V17.1273C423.864 12.0518 422.432 8.07552 419.632 5.37207C416.837 2.67229 412.777 1.33647 407.713 1.33647H370.255H369.592V2V29.013V29.6765H370.255H391.562V106.507H367.014H366.35V107.171V134.364ZM-29.0121 105.787H-53.3806V81.7215H-29.0121C-28.2009 81.7215 -27.4069 81.7198 -26.6301 81.718C-23.514 81.711 -20.6758 81.7046 -18.1234 81.8166C-14.9331 81.9565 -12.2488 82.28 -10.0858 82.9938C-7.93758 83.7027 -6.33492 84.7859 -5.25568 86.4356C-4.16901 88.0966 -3.56307 90.408 -3.56307 93.6641C-3.56307 96.9258 -4.1373 99.2526 -5.18711 100.932C-6.22796 102.598 -7.78157 103.699 -9.89181 104.427C-12.0187 105.161 -14.6838 105.507 -17.8987 105.664C-20.6205 105.796 -23.6943 105.793 -27.1235 105.788C-27.7415 105.787 -28.371 105.787 -29.0121 105.787ZM-28.832 54.8222H-53.3806V34.3588H-28.832C-28.665 34.3588 -28.4989 34.3587 -28.3338 34.3587C-25.8203 34.3581 -23.5393 34.3575 -21.5072 34.5034C-19.3403 34.659 -17.5127 34.9783 -16.0371 35.6108C-14.5799 36.2353 -13.4646 37.165 -12.7007 38.5705C-11.9279 39.9925 -11.4869 41.9533 -11.4869 44.6805C-11.4869 47.4928 -11.9713 49.4808 -12.7931 50.8984C-13.606 52.3006 -14.7819 53.2017 -16.2864 53.7868C-17.8088 54.3788 -19.6614 54.6443 -21.7981 54.7555C-23.4518 54.8417 -25.2355 54.8344 -27.134 54.8267C-27.6903 54.8245 -28.2564 54.8222 -28.832 54.8222ZM197.851 3.67758C192.268 3.67758 187.595 4.95743 184.306 7.65491C180.996 10.3698 179.178 14.4459 179.178 19.8286C179.178 25.2983 180.994 29.3772 184.308 32.0716C187.599 34.747 192.273 35.9796 197.851 35.9796C203.428 35.9796 208.23 34.747 211.652 32.0801C215.1 29.3929 217.063 25.315 217.063 19.8286C217.063 14.4292 215.099 10.354 211.655 7.64634C208.234 4.95738 203.433 3.67758 197.851 3.67758ZM300.563 108.308C293.071 108.308 287.495 106.789 283.796 103.627C280.119 100.484 278.176 95.6125 278.176 88.6217C278.176 81.7236 280.117 76.9441 283.791 73.8681C287.49 70.7715 293.067 69.2956 300.563 69.2956C308.06 69.2956 313.543 70.7717 317.15 73.8631C320.734 76.9356 322.591 81.7144 322.591 88.6217C322.591 95.7139 320.731 100.583 317.146 103.698C313.541 106.832 308.06 108.308 300.563 108.308ZM459.556 115.995C459.556 121.644 461.549 126.857 465.236 130.661C468.928 134.47 474.282 136.828 480.93 136.828C493.899 136.828 502.664 127.35 502.664 115.995C502.664 104.984 493.883 95.7018 480.93 95.7018C474.287 95.7018 468.934 98.0121 465.242 101.728C461.553 105.44 459.556 110.52 459.556 115.995ZM480.57 42.5763C473.926 42.5763 468.574 44.8865 464.882 48.6024C461.193 52.3147 459.196 57.3942 459.196 62.8693C459.196 68.5182 461.188 73.7312 464.876 77.5354C468.568 81.3442 473.922 83.7025 480.57 83.7025C493.538 83.7025 502.303 74.2248 502.303 62.8693C502.303 51.8585 493.523 42.5763 480.57 42.5763Z" stroke="#453E97" stroke-opacity="0.89" stroke-width="1.32706"/>
</svg>
