<svg width="151" height="150" viewBox="0 0 151 150" fill="none" xmlns="http://www.w3.org/2000/svg">
<path d="M75.5 128.203C103.819 128.203 126.776 119.197 126.776 108.088C126.776 96.9786 103.819 87.9727 75.5 87.9727C47.1809 87.9727 24.2236 96.9786 24.2236 108.088C24.2236 119.197 47.1809 128.203 75.5 128.203Z" fill="#0B1237" fill-opacity="0.1"/>
<path d="M54.9528 47.9082L52.9306 60.5888H46.3584L48.3806 47.9082H54.9528Z" fill="#0B1237" fill-opacity="0.1"/>
<path d="M87.6348 61.0117C88.0723 61.0117 88.3723 61.3534 88.3043 61.7756C88.2376 62.1978 87.8293 62.5409 87.3904 62.5409H61.7029C61.2654 62.5409 60.964 62.1978 61.0321 61.7756C61.0987 61.3534 61.5084 61.0117 61.9459 61.0117H87.6348Z" fill="#020827"/>
<path d="M89.769 51.9559H104.734L102.49 66.0295L101.601 71.6045H62.2176C60.7829 71.6045 59.6759 70.6767 59.5176 69.3392L59.3954 68.2934C59.237 66.9573 58.1301 66.0281 56.6954 66.0281H45.4912L46.1148 62.1142H54.2718L56.7815 46.3781H48.6245L50.0773 37.2656H91.8509L92.0704 37.5156L89.769 51.9559ZM88.2079 57.4184C88.6454 57.4184 89.0537 57.0767 89.1204 56.6545C89.187 56.2323 88.8884 55.8892 88.4509 55.8892H62.762C62.3245 55.8892 61.9148 56.2323 61.8468 56.6545C61.7801 57.0767 62.0801 57.4184 62.5176 57.4184H88.2079ZM87.3912 62.5406C87.8287 62.5406 88.237 62.1976 88.3051 61.7753C88.3718 61.3531 88.0732 61.0115 87.6357 61.0115H61.9454C61.5079 61.0115 61.0982 61.3531 61.0315 61.7753C60.9648 62.1976 61.2648 62.5406 61.7023 62.5406H87.3912ZM86.5745 67.6601C87.012 67.6601 87.4204 67.3184 87.487 66.8962C87.5537 66.474 87.2551 66.1309 86.8176 66.1309H61.1287C60.6912 66.1309 60.2815 66.474 60.2134 66.8962C60.1468 67.3184 60.4468 67.6601 60.8843 67.6601H86.5745Z" fill="#0B1237" fill-opacity="0.1"/>
<path d="M86.8184 66.1309C87.2559 66.1309 87.5545 66.4739 87.4879 66.8961C87.4212 67.3184 87.0129 67.66 86.5754 67.66H60.8865C60.449 67.66 60.1476 67.3184 60.2156 66.8961C60.2823 66.4739 60.692 66.1309 61.1309 66.1309H86.8184Z" fill="#020827"/>
<path d="M86.8184 66.1309C87.2559 66.1309 87.5545 66.4739 87.4879 66.8961C87.4212 67.3184 87.0129 67.66 86.5754 67.66H60.8865C60.449 67.66 60.1476 67.3184 60.2156 66.8961C60.2823 66.4739 60.692 66.1309 61.1309 66.1309H86.8184Z" fill="#020827"/>
<path d="M115.025 72.0615C115.024 72.0184 115.02 71.9754 115.016 71.9323C115.013 71.9073 115.011 71.8809 115.009 71.8559C115.003 71.8087 114.995 71.7615 114.986 71.7143C114.984 71.6976 114.982 71.6809 114.978 71.6643C114.978 71.6615 114.977 71.6587 114.975 71.6546C114.966 71.6046 114.953 71.5546 114.941 71.5059C114.938 71.4934 114.935 71.4796 114.931 71.4671C114.914 71.4059 114.895 71.3448 114.872 71.2851C114.872 71.2837 114.871 71.2823 114.871 71.2809C114.87 71.2782 114.868 71.2754 114.867 71.2712C114.834 71.1809 114.796 71.0948 114.753 71.0101C114.749 71.0032 114.747 70.9948 114.743 70.9879C114.742 70.9837 114.739 70.9809 114.736 70.9768C114.697 70.9032 114.656 70.8309 114.61 70.7615C114.606 70.7546 114.602 70.7476 114.597 70.7407C114.577 70.7101 114.556 70.6796 114.535 70.6504L111.922 67.0879C111.949 67.124 111.974 67.1615 111.997 67.199C112.043 67.2684 112.085 67.3407 112.124 67.4143C112.129 67.4254 112.135 67.4365 112.141 67.4476C112.182 67.5323 112.221 67.6198 112.254 67.7087C112.256 67.7129 112.259 67.7171 112.26 67.7226C112.281 67.7823 112.3 67.8434 112.318 67.9046C112.322 67.9171 112.324 67.9309 112.328 67.9434C112.341 67.9921 112.353 68.0421 112.363 68.0921C112.367 68.1115 112.37 68.1309 112.372 68.1504C112.381 68.1976 112.388 68.2434 112.395 68.2921C112.397 68.3171 112.399 68.3434 112.402 68.3684C112.406 68.4115 112.409 68.4546 112.411 68.4976C112.413 68.5254 112.413 68.5532 112.413 68.5809C112.413 68.6226 112.413 68.6657 112.411 68.7073C112.41 68.7351 112.41 68.7643 112.407 68.7934C112.404 68.8365 112.4 68.8796 112.396 68.924C112.393 68.9518 112.391 68.9796 112.386 69.0087C112.379 69.0559 112.372 69.1018 112.363 69.149C112.359 69.174 112.354 69.199 112.349 69.224C112.336 69.2851 112.321 69.3462 112.304 69.4073C112.302 69.4184 112.299 69.4296 112.296 69.4421C112.275 69.5143 112.252 69.5879 112.225 69.6601C112.217 69.6823 112.207 69.7046 112.199 69.7268C112.179 69.7782 112.159 69.8296 112.136 69.8796C112.11 69.9379 112.084 69.9962 112.054 70.0559L93.3114 107.034L93.2169 106.906C93.1836 106.982 93.1475 107.056 93.1086 107.13C93.1058 107.135 93.103 107.139 93.1016 107.145C93.0641 107.216 93.0239 107.284 92.9822 107.352C92.9253 107.443 92.8655 107.531 92.8017 107.617C92.7836 107.642 92.7641 107.664 92.7461 107.688C92.703 107.742 92.66 107.796 92.6141 107.849C92.5905 107.877 92.5655 107.903 92.5405 107.93C92.4989 107.974 92.4558 108.018 92.4114 108.061C92.385 108.086 92.36 108.113 92.3336 108.137C92.2864 108.18 92.2378 108.221 92.1891 108.263C92.1641 108.284 92.1405 108.305 92.1155 108.325C92.0405 108.387 91.9628 108.445 91.8822 108.499C91.7989 108.556 91.7128 108.609 91.6253 108.66C91.6016 108.674 91.5767 108.687 91.5517 108.7C91.4767 108.742 91.4003 108.781 91.3225 108.817C91.2919 108.832 91.26 108.846 91.2294 108.86C91.2003 108.873 91.1711 108.885 91.1419 108.896C91.0947 108.916 91.0475 108.934 91.0003 108.95C90.9697 108.961 90.9405 108.971 90.91 108.982C90.8628 108.998 90.8155 109.013 90.7683 109.025C90.735 109.035 90.703 109.045 90.6697 109.053C90.6211 109.066 90.5711 109.077 90.5211 109.088C90.4892 109.095 90.4572 109.102 90.4266 109.109C90.3725 109.118 90.3169 109.127 90.2614 109.134C90.235 109.138 90.2072 109.142 90.1808 109.145C90.0989 109.155 90.0155 109.161 89.9336 109.164L92.5461 112.727C92.5503 112.727 92.5544 112.725 92.5586 112.725L92.56 112.727C92.5683 112.727 92.5767 112.727 92.5864 112.727C92.6253 112.727 92.6628 112.725 92.7016 112.724C92.7183 112.723 92.735 112.72 92.7517 112.72C92.835 112.716 92.9183 112.707 93.0003 112.696C93.0253 112.693 93.0489 112.691 93.0739 112.688C93.1794 112.673 93.2836 112.652 93.3878 112.625C93.4128 112.62 93.4364 112.611 93.46 112.606C93.5142 112.591 93.5697 112.578 93.6239 112.56C93.653 112.55 93.6822 112.539 93.7114 112.53C93.7336 112.523 93.7544 112.514 93.7767 112.507C93.8669 112.474 93.9558 112.439 94.0433 112.4C94.0489 112.398 94.0544 112.393 94.0614 112.392C94.0669 112.389 94.0739 112.388 94.0808 112.384C94.0808 112.384 94.0808 112.382 94.0794 112.382C94.0794 112.382 94.0794 112.384 94.0808 112.384C94.178 112.339 94.2725 112.289 94.3655 112.236C94.3683 112.235 94.3697 112.234 94.3725 112.232C94.4003 112.217 94.4253 112.199 94.4517 112.182C94.5142 112.145 94.5766 112.107 94.6378 112.066C94.6433 112.063 94.6475 112.06 94.653 112.056C94.6905 112.031 94.7253 112.002 94.7614 111.974C94.8044 111.942 94.8475 111.913 94.8878 111.88C94.8933 111.875 94.8975 111.873 94.903 111.868C94.9419 111.838 94.9767 111.803 95.0142 111.771C95.0461 111.743 95.0794 111.717 95.11 111.688C95.1169 111.681 95.1239 111.675 95.1308 111.668C95.1322 111.667 95.1322 111.667 95.1336 111.666C95.135 111.664 95.135 111.664 95.1364 111.663C95.1447 111.656 95.153 111.648 95.16 111.641C95.178 111.624 95.1919 111.605 95.21 111.588C95.2572 111.541 95.3058 111.493 95.3503 111.443C95.3628 111.43 95.3739 111.414 95.3864 111.4C95.3961 111.389 95.4086 111.378 95.4183 111.367C95.428 111.356 95.4378 111.343 95.4475 111.332C95.4794 111.293 95.51 111.255 95.5405 111.214C95.5461 111.207 95.553 111.2 95.5586 111.192C95.56 111.189 95.5614 111.187 95.5642 111.184C95.628 111.099 95.6878 111.01 95.7447 110.92C95.7503 110.91 95.7572 110.902 95.7628 110.893C95.7683 110.885 95.7725 110.875 95.778 110.867C95.8225 110.793 95.8642 110.72 95.903 110.642L114.674 73.6143C114.699 73.5643 114.724 73.5129 114.746 73.4629C114.75 73.4546 114.753 73.4462 114.756 73.4393C114.778 73.3879 114.799 73.3365 114.818 73.2865C114.827 73.2643 114.836 73.2421 114.845 73.2198C114.871 73.1476 114.895 73.074 114.916 73.0018C114.918 72.9907 114.921 72.9796 114.924 72.9671C114.941 72.9059 114.956 72.8448 114.968 72.7837C114.974 72.7587 114.978 72.7337 114.982 72.7087C114.991 72.6615 114.999 72.6143 115.006 72.5684C115.01 72.5407 115.013 72.5129 115.016 72.4837C115.02 72.4407 115.024 72.3962 115.027 72.3532C115.028 72.324 115.029 72.2962 115.031 72.2671C115.032 72.224 115.032 72.1823 115.032 72.1407C115.027 72.1171 115.027 72.0893 115.025 72.0615Z" fill="#070E32" fill-opacity="0.1"/>
<path d="M92.3904 113.05L89.332 108.88L89.9181 108.856C89.9931 108.853 90.0681 108.846 90.1431 108.838C90.1556 108.837 90.1668 108.835 90.1793 108.832L90.2168 108.827C90.2668 108.82 90.3167 108.813 90.3667 108.803C90.3862 108.799 90.4043 108.795 90.4223 108.792L90.4529 108.785C90.4973 108.775 90.5431 108.766 90.5876 108.755C90.6126 108.748 90.6376 108.741 90.6612 108.734L90.6779 108.728C90.7209 108.716 90.7654 108.703 90.8084 108.688C90.8362 108.678 90.864 108.668 90.8918 108.659C90.9348 108.643 90.9793 108.627 91.0223 108.609C91.0529 108.596 91.0779 108.586 91.1029 108.575C91.1223 108.567 91.1418 108.557 91.1612 108.548L91.189 108.535C91.2612 108.502 91.3306 108.466 91.4001 108.427L91.4681 108.389C91.5584 108.337 91.6348 108.289 91.7042 108.241C91.7723 108.193 91.8431 108.142 91.9181 108.081C91.932 108.07 91.9445 108.059 91.957 108.048L91.9862 108.023C92.0306 107.985 92.0765 107.946 92.1195 107.906C92.1404 107.886 92.1612 107.866 92.182 107.845C92.232 107.796 92.2709 107.756 92.3098 107.714C92.332 107.691 92.3543 107.666 92.3765 107.641C92.4195 107.592 92.4598 107.543 92.4987 107.492L92.5209 107.464C92.5306 107.452 92.5404 107.439 92.5501 107.427C92.6112 107.346 92.6668 107.264 92.7154 107.184C92.7543 107.121 92.7904 107.059 92.8251 106.995L92.8306 106.982C92.8668 106.914 92.9001 106.846 92.9292 106.777L93.1459 106.28L93.2598 106.435L111.778 69.9143C111.806 69.8601 111.829 69.8073 111.853 69.7532C111.874 69.7059 111.892 69.6601 111.91 69.6129L111.933 69.5546C111.957 69.4879 111.979 69.4212 111.999 69.3559L112.007 69.324C112.022 69.2698 112.036 69.2143 112.047 69.1601C112.05 69.1476 112.051 69.1351 112.054 69.1226L112.06 69.0921C112.068 69.049 112.075 69.0073 112.081 68.9657C112.083 68.9462 112.085 68.9268 112.088 68.9059L112.089 68.8907C112.093 68.8518 112.097 68.8129 112.099 68.774C112.1 68.749 112.101 68.724 112.101 68.6976C112.103 68.6587 112.103 68.6212 112.103 68.5837C112.103 68.5601 112.103 68.5351 112.101 68.5101C112.1 68.4712 112.097 68.4337 112.093 68.3962L112.09 68.3698C112.089 68.3559 112.088 68.3421 112.086 68.3282C112.081 68.2865 112.074 68.2448 112.067 68.2032L112.058 68.1504C112.05 68.1059 112.039 68.0629 112.028 68.0198L112.021 67.9934C112.004 67.9323 111.988 67.8782 111.968 67.8268L111.964 67.8171C111.936 67.7393 111.903 67.6643 111.864 67.5851L111.854 67.5643C111.818 67.4948 111.781 67.4309 111.739 67.3671C111.718 67.3351 111.697 67.3032 111.675 67.2726L111.672 67.2698L112.176 66.9004L114.789 70.4629C114.814 70.4962 114.838 70.5296 114.86 70.5643L114.879 70.5962C114.925 70.6671 114.971 70.7421 115.011 70.8198L115.022 70.8407C115.028 70.8518 115.033 70.8629 115.038 70.8754C115.085 70.9698 115.124 71.0601 115.157 71.149L115.171 71.1837C115.195 71.2518 115.215 71.3157 115.233 71.3796C115.236 71.3907 115.239 71.4032 115.242 71.4157C115.258 71.4782 115.271 71.5337 115.282 71.5893L115.285 71.6046C115.288 71.6157 115.289 71.6296 115.292 71.6448C115.303 71.7087 115.311 71.7601 115.318 71.8143C115.321 71.8365 115.322 71.8587 115.325 71.8809L115.326 71.899C115.331 71.9462 115.335 71.9934 115.336 72.0421C115.338 72.0726 115.338 72.1032 115.339 72.1337C115.34 72.1809 115.339 72.2282 115.338 72.2754C115.336 72.3059 115.335 72.3379 115.333 72.3698C115.331 72.4171 115.326 72.4657 115.321 72.5143L115.32 72.5282C115.317 72.5546 115.314 72.5809 115.31 72.6073C115.303 72.6587 115.295 72.7101 115.285 72.7615L115.281 72.7851C115.278 72.8046 115.274 72.8254 115.27 72.8448C115.256 72.9115 115.239 72.9796 115.221 73.0462C115.217 73.0629 115.214 73.074 115.211 73.0851C115.189 73.1643 115.163 73.2434 115.133 73.3226C115.126 73.3393 115.121 73.3573 115.114 73.374L115.106 73.3962C115.085 73.4518 115.063 73.5073 115.038 73.5629C115.035 73.5712 115.031 73.5796 115.026 73.5893C115.001 73.6448 114.975 73.699 114.947 73.7546L96.1779 110.786C96.139 110.861 96.0945 110.942 96.0418 111.031C96.0376 111.039 96.032 111.049 96.0265 111.059C96.0195 111.071 96.0112 111.081 96.0043 111.092C95.9418 111.192 95.8806 111.282 95.8168 111.368L95.8098 111.378L95.814 111.384L95.6529 111.574L95.407 111.863L95.3959 111.849C95.389 111.856 95.382 111.863 95.3751 111.87L95.3209 111.921C95.2973 111.943 95.2737 111.963 95.2501 111.984L95.182 112.043C95.1543 112.068 95.1265 112.093 95.0973 112.117L95.0751 112.134C95.0473 112.156 95.0126 112.181 94.9779 112.206L94.907 112.259C94.8806 112.28 94.8529 112.3 94.8251 112.32L94.8015 112.335C94.7459 112.374 94.6792 112.413 94.614 112.453L94.5834 112.473C94.5695 112.482 94.5543 112.491 94.539 112.5L94.5487 112.513L94.2251 112.664C94.2195 112.667 94.214 112.67 94.2084 112.673L93.9806 112.778L93.9751 112.771C93.9445 112.782 93.9126 112.795 93.8793 112.807L93.7806 112.842C93.7584 112.85 93.7376 112.857 93.7154 112.864C93.6681 112.88 93.6195 112.892 93.5723 112.905L93.514 112.917C93.4959 112.923 93.4779 112.927 93.4598 112.932C93.3473 112.96 93.232 112.982 93.1181 113C93.0987 113.003 93.0806 113.006 93.0612 113.007L93.0376 113.01C92.9459 113.023 92.8543 113.031 92.7668 113.035C92.7459 113.038 92.7292 113.039 92.7126 113.041C92.6695 113.042 92.6279 113.043 92.5862 113.043H92.557H92.5515L92.3904 113.05ZM90.5001 109.414L92.7001 112.413C92.7112 112.411 92.7209 112.41 92.732 112.41C92.807 112.406 92.8834 112.399 92.9584 112.389L93.0251 112.381C93.1209 112.367 93.2167 112.348 93.3112 112.324L93.4154 112.296C93.4529 112.287 93.4917 112.277 93.5279 112.264C93.5417 112.26 93.5556 112.255 93.5695 112.25L93.6667 112.216C93.7626 112.181 93.8404 112.149 93.9112 112.117C93.9084 112.117 93.9181 112.113 93.9265 112.109L93.9501 112.099C94.0334 112.06 94.1195 112.016 94.2056 111.967L94.2181 111.96C94.2265 111.956 94.2334 111.95 94.2418 111.945C94.2556 111.935 94.2709 111.927 94.2848 111.917C94.3459 111.881 94.4015 111.846 94.4556 111.81L94.4779 111.796C94.4876 111.789 94.507 111.774 94.5251 111.76L94.6084 111.699C94.6348 111.68 94.6612 111.66 94.6876 111.639L94.7084 111.624C94.7223 111.613 94.7418 111.595 94.7626 111.577L94.8473 111.503C94.8626 111.491 94.8793 111.477 94.8931 111.463L94.9515 111.406C94.9626 111.393 94.9737 111.382 94.9848 111.37L95.0126 111.342C95.0473 111.307 95.082 111.274 95.114 111.238C95.1292 111.218 95.1376 111.209 95.1459 111.199C95.1556 111.188 95.164 111.178 95.1737 111.17L95.4112 111.368L95.1765 111.168L95.2029 111.138C95.2306 111.105 95.257 111.07 95.282 111.037C95.2917 111.024 95.2973 111.017 95.3029 111.01L95.3112 110.999C95.364 110.93 95.4167 110.85 95.4737 110.76C95.4792 110.75 95.4862 110.741 95.4931 110.731C95.4931 110.73 95.4987 110.72 95.5043 110.711C95.5445 110.645 95.5834 110.577 95.6181 110.507L114.389 73.4809C114.413 73.4351 114.435 73.3879 114.456 73.3421C114.457 73.3365 114.461 73.3282 114.465 73.3184C114.485 73.274 114.504 73.2268 114.521 73.181L114.545 73.1212C114.568 73.0559 114.59 72.9893 114.608 72.924L114.617 72.8934C114.632 72.8379 114.646 72.7837 114.657 72.7282L114.67 72.6601C114.676 72.6185 114.685 72.5754 114.69 72.5337C114.693 72.5143 114.695 72.4948 114.697 72.474L114.699 72.4587C114.703 72.4198 114.707 72.3809 114.708 72.3421C114.71 72.3171 114.711 72.2921 114.711 72.2657C114.713 72.2268 114.713 72.1893 114.713 72.1518C114.713 72.1268 114.713 72.1032 114.711 72.0782C114.71 72.0393 114.707 72.0018 114.703 71.9643L114.701 71.9421C114.7 71.9268 114.699 71.9115 114.697 71.8962C114.692 71.8546 114.685 71.8129 114.678 71.7712L114.671 71.7282C114.67 71.724 114.67 71.7185 114.668 71.7143C114.66 71.6754 114.65 71.6309 114.638 71.5879L114.631 71.5601C114.615 71.5018 114.599 71.449 114.579 71.3976C114.578 71.3934 114.575 71.3879 114.574 71.3823C114.546 71.3073 114.514 71.2323 114.474 71.1518L114.46 71.1226C114.428 71.0601 114.392 70.999 114.349 70.9337L114.331 70.9046C114.32 70.8893 114.301 70.8629 114.282 70.8365L112.722 68.7087C112.722 68.7115 112.722 68.7157 112.722 68.7184C112.721 68.749 112.72 68.7809 112.718 68.8129C112.715 68.8615 112.711 68.9087 112.706 68.9573L112.704 68.9712C112.701 68.9976 112.699 69.024 112.696 69.049C112.689 69.1004 112.679 69.1532 112.671 69.2046L112.667 69.2282C112.664 69.2476 112.66 69.2684 112.656 69.2879C112.642 69.3546 112.625 69.4226 112.607 69.4893L112.597 69.5254C112.574 69.6059 112.549 69.6865 112.52 69.7657C112.514 69.7823 112.507 69.799 112.5 69.8157L112.492 69.8365C112.47 69.8921 112.449 69.9476 112.424 70.0032C112.396 70.0671 112.367 70.1309 112.333 70.1948L93.357 107.625L93.2584 107.491C93.2542 107.498 93.2501 107.505 93.2445 107.513C93.1848 107.609 93.1195 107.706 93.0487 107.802C93.0348 107.82 93.0209 107.838 93.0056 107.856L92.9876 107.878C92.9404 107.938 92.8931 107.996 92.8445 108.052C92.8195 108.081 92.7931 108.11 92.7654 108.139C92.7195 108.188 92.6737 108.235 92.6265 108.282C92.5931 108.316 92.5681 108.341 92.5418 108.364C92.4918 108.411 92.439 108.456 92.3862 108.5L92.3626 108.52C92.3445 108.535 92.3251 108.552 92.307 108.567C92.2195 108.638 92.1362 108.699 92.0556 108.755C91.9737 108.812 91.8834 108.868 91.7793 108.928C91.7612 108.939 91.7417 108.949 91.7237 108.959L91.7001 108.971C91.6195 109.016 91.5362 109.059 91.4515 109.098L91.4265 109.109C91.4015 109.121 91.3751 109.132 91.3501 109.145C91.3209 109.157 91.2917 109.17 91.2626 109.182C91.2056 109.206 91.1543 109.225 91.1015 109.245C91.0695 109.256 91.0362 109.268 91.0043 109.278C90.9529 109.295 90.9015 109.31 90.8501 109.325L90.8334 109.33C90.8029 109.338 90.7723 109.348 90.7417 109.355C90.689 109.368 90.6348 109.38 90.5806 109.392L90.5543 109.398C90.539 109.407 90.5195 109.412 90.5001 109.414ZM115.174 71.1935V71.1948C115.174 71.1934 115.174 71.1935 115.174 71.1935ZM115.167 71.1754C115.168 71.1796 115.17 71.1823 115.171 71.1865C115.17 71.1823 115.168 71.1782 115.167 71.1754Z" fill="#0B1237" fill-opacity="0.1"/>
<path d="M109.694 66.0293C111.86 66.0293 113.061 68.0765 112.057 70.0557L93.286 107.083C92.6541 108.329 91.3082 109.17 89.9443 109.168C91.3179 109.111 92.6513 108.199 93.2166 106.906L106.972 75.4515C107.821 73.5112 106.608 71.6043 104.523 71.6043H101.598L102.487 66.0293H109.694Z" fill="#0B1237" fill-opacity="0.9"/>
<path d="M89.9473 109.481C89.9459 109.481 89.9445 109.481 89.9432 109.481L89.9307 108.856C91.1848 108.805 92.4182 107.952 92.9293 106.781L106.685 75.3271C107.051 74.4882 107.01 73.6201 106.568 72.9465C106.14 72.2938 105.396 71.9187 104.522 71.9187H101.232L102.221 65.7188H109.693C110.815 65.7188 111.767 66.2201 112.304 67.0965C112.854 67.9924 112.865 69.1535 112.335 70.1993L93.564 107.224C92.8793 108.574 91.4265 109.481 89.9473 109.481ZM101.967 71.2924H104.525C105.613 71.2924 106.549 71.7701 107.093 72.6035C107.651 73.4576 107.713 74.541 107.258 75.5771L96.9043 99.2535L111.778 69.9146C112.217 69.0507 112.214 68.141 111.772 67.4215C111.351 66.7354 110.595 66.3424 109.695 66.3424H102.756L101.967 71.2924Z" fill="#0B1237" fill-opacity="0.1"/>
<path d="M109.854 77.6166C109.851 77.5694 109.848 77.5221 109.843 77.4749C109.84 77.4513 109.837 77.4277 109.834 77.4041C109.829 77.3624 109.823 77.3207 109.815 77.2791C109.812 77.2666 109.812 77.2541 109.809 77.2416C109.807 77.2291 109.804 77.218 109.801 77.2055C109.793 77.168 109.784 77.1291 109.775 77.0916C109.769 77.068 109.762 77.0444 109.757 77.0207C109.745 76.9819 109.733 76.943 109.719 76.9041C109.713 76.8888 109.709 76.8721 109.704 76.8569C109.702 76.8541 109.701 76.8513 109.7 76.8471C109.666 76.7569 109.629 76.6707 109.586 76.586C109.582 76.5791 109.58 76.5707 109.576 76.5638C109.573 76.5582 109.569 76.5541 109.566 76.5485C109.527 76.4749 109.486 76.4041 109.441 76.336C109.437 76.3305 109.434 76.3249 109.432 76.3194C109.411 76.2888 109.39 76.2596 109.369 76.2305L106.757 72.668C106.782 72.7027 106.805 72.7388 106.829 72.7749C106.873 72.8444 106.916 72.9152 106.954 72.9874C106.961 72.9999 106.966 73.0124 106.973 73.0249C107.016 73.1096 107.054 73.1971 107.087 73.286C107.094 73.3055 107.1 73.3235 107.107 73.343C107.119 73.3819 107.133 73.4207 107.144 73.4596C107.151 73.4832 107.157 73.5069 107.162 73.5305C107.172 73.568 107.18 73.6055 107.188 73.6444C107.194 73.6694 107.198 73.693 107.202 73.718C107.209 73.7596 107.216 73.8013 107.222 73.843C107.225 73.8666 107.229 73.8902 107.23 73.9138C107.234 73.961 107.238 74.0082 107.24 74.0555C107.241 74.0749 107.243 74.0944 107.243 74.1138C107.244 74.1805 107.244 74.2485 107.241 74.3166C107.241 74.3277 107.24 74.3388 107.238 74.3513C107.236 74.4082 107.232 74.4652 107.225 74.5235C107.222 74.5471 107.218 74.5707 107.215 74.5944C107.208 74.6402 107.201 74.6874 107.193 74.7332C107.188 74.7596 107.183 74.786 107.177 74.8124C107.168 74.8569 107.157 74.9027 107.145 74.9485C107.138 74.9749 107.132 75.0013 107.125 75.0277C107.111 75.0763 107.095 75.1249 107.079 75.1735C107.07 75.1957 107.063 75.2194 107.055 75.2416C107.03 75.3124 107.001 75.3846 106.97 75.4555L93.2148 106.91C93.1815 106.986 93.1454 107.06 93.1065 107.133C93.1037 107.139 93.101 107.143 93.0996 107.149C93.0621 107.219 93.0218 107.287 92.9801 107.355C92.9232 107.447 92.8635 107.535 92.7996 107.621C92.7815 107.646 92.7621 107.668 92.744 107.692C92.701 107.746 92.6579 107.8 92.6121 107.853C92.5885 107.88 92.5635 107.907 92.5385 107.933C92.4968 107.978 92.4537 108.022 92.4093 108.065C92.3829 108.09 92.3579 108.117 92.3315 108.14C92.2843 108.183 92.2357 108.225 92.1871 108.267C92.1621 108.287 92.1385 108.308 92.1135 108.329C92.0385 108.39 91.9607 108.449 91.8801 108.503C91.7968 108.56 91.7107 108.612 91.6232 108.664C91.5996 108.678 91.5746 108.69 91.5496 108.704C91.4746 108.746 91.3982 108.785 91.3204 108.821C91.2898 108.836 91.2579 108.85 91.2273 108.864C91.1982 108.876 91.169 108.889 91.1398 108.9C91.0926 108.919 91.0454 108.937 90.9982 108.954C90.9676 108.965 90.9385 108.975 90.9079 108.986C90.8607 109.001 90.8135 109.017 90.7662 109.029C90.7329 109.039 90.701 109.049 90.6676 109.057C90.619 109.069 90.569 109.08 90.519 109.092C90.4871 109.099 90.4551 109.105 90.4246 109.112C90.3704 109.122 90.3148 109.13 90.2593 109.137C90.2329 109.142 90.2051 109.146 90.1787 109.149C90.0968 109.158 90.0135 109.165 89.9315 109.168L43.0718 109.171C42.126 109.171 41.3232 108.767 40.8398 108.108L43.4523 111.671C43.9357 112.329 44.7385 112.733 45.6843 112.733L92.544 112.73C92.6273 112.728 92.7093 112.721 92.7912 112.711C92.819 112.708 92.8454 112.703 92.8718 112.7C92.9273 112.693 92.9815 112.685 93.0357 112.675C93.0676 112.669 93.0996 112.661 93.1315 112.654C93.1815 112.643 93.2301 112.633 93.2787 112.619C93.3121 112.611 93.3454 112.601 93.3787 112.592C93.4079 112.583 93.4371 112.576 93.4662 112.567C93.4843 112.561 93.5023 112.554 93.5204 112.549C93.551 112.539 93.5801 112.528 93.6107 112.517C93.6579 112.5 93.7051 112.48 93.7523 112.462C93.7815 112.45 93.8107 112.439 93.8398 112.426C93.8551 112.419 93.8704 112.414 93.8843 112.408C93.901 112.401 93.9162 112.392 93.9329 112.383C94.0107 112.347 94.0871 112.308 94.1621 112.267C94.1787 112.258 94.1954 112.251 94.2107 112.242C94.219 112.236 94.2273 112.23 94.2357 112.226C94.4065 112.128 94.5704 112.015 94.7246 111.892C94.7301 111.887 94.7371 111.883 94.7426 111.878C94.7621 111.862 94.7787 111.844 94.7982 111.829C94.8468 111.787 94.8954 111.746 94.9426 111.703C94.9523 111.693 94.9635 111.685 94.9746 111.675C94.9912 111.66 95.0051 111.643 95.0218 111.626C95.0662 111.583 95.1093 111.539 95.151 111.494C95.1648 111.479 95.1787 111.467 95.1926 111.451C95.2037 111.439 95.2135 111.426 95.2246 111.414C95.2704 111.361 95.3134 111.308 95.3565 111.253C95.3704 111.235 95.3857 111.218 95.3996 111.2C95.4037 111.194 95.4079 111.187 95.4135 111.18C95.4773 111.094 95.5385 111.005 95.594 110.915C95.5968 110.911 95.601 110.907 95.6037 110.901C95.6426 110.837 95.6787 110.774 95.7135 110.708C95.7162 110.703 95.719 110.697 95.7218 110.692C95.7523 110.632 95.7829 110.572 95.8107 110.511C95.8176 110.497 95.8232 110.482 95.8301 110.468L109.586 79.0138C109.616 78.943 109.644 78.8707 109.67 78.7999C109.679 78.7763 109.686 78.7541 109.694 78.7319C109.711 78.6832 109.726 78.6346 109.74 78.586C109.747 78.5596 109.754 78.5332 109.761 78.5069C109.772 78.461 109.783 78.4166 109.793 78.3707C109.798 78.3444 109.804 78.318 109.808 78.2916C109.816 78.2457 109.823 78.1985 109.83 78.1527C109.833 78.1291 109.837 78.1055 109.84 78.0819C109.847 78.0235 109.851 77.9666 109.854 77.9096C109.854 77.8985 109.855 77.8874 109.857 77.8749C109.859 77.8069 109.859 77.7388 109.858 77.6721C109.857 77.6555 109.855 77.636 109.854 77.6166Z" fill="#0B1237" fill-opacity="0.8"/>
<path d="M45.6847 113.047C44.6611 113.047 43.7555 112.614 43.2014 111.857L40.5889 108.295L41.093 107.925L41.0958 107.929C41.5319 108.521 42.2514 108.86 43.0722 108.86L89.9319 108.857C89.9944 108.854 90.0694 108.847 90.1444 108.839C90.1569 108.838 90.168 108.836 90.1805 108.834L90.218 108.828C90.268 108.821 90.318 108.814 90.368 108.804C90.3875 108.8 90.4055 108.796 90.4236 108.793L90.4541 108.786C90.4986 108.777 90.5444 108.767 90.5889 108.756C90.6139 108.749 90.6389 108.742 90.6625 108.735L90.6791 108.729C90.7222 108.717 90.7666 108.704 90.8097 108.689C90.8375 108.679 90.8653 108.67 90.893 108.66C90.9361 108.645 90.9805 108.628 91.0236 108.61C91.0541 108.597 91.0791 108.588 91.1041 108.577C91.1236 108.568 91.143 108.559 91.1625 108.549L91.1903 108.536C91.2625 108.503 91.3319 108.467 91.4014 108.428L91.4694 108.39C91.5597 108.338 91.6361 108.29 91.7055 108.242C91.7736 108.195 91.8444 108.143 91.9194 108.082C91.9333 108.071 91.9458 108.06 91.9583 108.049L91.9875 108.024C92.0319 107.986 92.0778 107.947 92.1208 107.907C92.1416 107.888 92.1625 107.867 92.1833 107.846C92.2333 107.797 92.2722 107.757 92.3111 107.715C92.3333 107.692 92.3555 107.667 92.3778 107.642C92.4208 107.593 92.4611 107.545 92.5 107.493L92.5222 107.465C92.5319 107.453 92.5416 107.44 92.5514 107.428C92.6125 107.347 92.668 107.265 92.7166 107.185C92.7555 107.122 92.7916 107.06 92.8264 106.996L92.8319 106.984C92.868 106.915 92.9014 106.847 92.9305 106.778L106.686 75.3238C106.714 75.2585 106.74 75.1946 106.762 75.1293L106.783 75.0668C106.799 75.0238 106.812 74.9793 106.825 74.9349C106.832 74.9127 106.837 74.8904 106.843 74.8682C106.856 74.8224 106.865 74.7821 106.874 74.7418C106.879 74.7182 106.883 74.6946 106.887 74.671C106.896 74.6293 106.901 74.5877 106.907 74.546L106.915 74.4821C106.921 74.4307 106.925 74.3793 106.928 74.328L106.929 74.3016C106.932 74.2363 106.932 74.1766 106.931 74.1168L106.928 74.0655C106.925 74.0238 106.924 73.9821 106.918 73.9404C106.917 73.9252 106.914 73.9099 106.912 73.8946L106.91 73.8779C106.906 73.8404 106.9 73.8043 106.893 73.7682C106.889 73.746 106.885 73.7252 106.881 73.703C106.874 73.6696 106.865 73.6363 106.857 73.6029L106.84 73.5404C106.831 73.5057 106.819 73.4724 106.807 73.4377L106.79 73.3877C106.762 73.3127 106.731 73.2377 106.69 73.1585L106.674 73.1252C106.64 73.0613 106.604 72.9988 106.564 72.9391C106.543 72.9071 106.524 72.8766 106.501 72.8474L106.5 72.846L107.004 72.4766C107.004 72.478 107.006 72.478 107.006 72.4793L109.617 76.0391C109.64 76.0724 109.664 76.1057 109.687 76.1391L109.703 76.1655C109.75 76.2391 109.794 76.3141 109.835 76.3905C109.839 76.3988 109.844 76.4057 109.849 76.4141L109.864 76.4474C109.911 76.5418 109.95 76.6321 109.983 76.7224L109.99 76.7377C109.997 76.7585 110.003 76.7724 110.007 76.7863C110.025 76.8404 110.039 76.8849 110.051 76.9293C110.058 76.9543 110.065 76.9793 110.071 77.0043C110.082 77.0502 110.093 77.0932 110.101 77.1349C110.106 77.1516 110.108 77.1627 110.111 77.1752C110.114 77.1877 110.115 77.2002 110.117 77.2127C110.126 77.2641 110.133 77.3113 110.139 77.3585C110.143 77.3918 110.146 77.4154 110.149 77.4391C110.154 77.4904 110.157 77.5432 110.16 77.596L110.161 77.6141C110.162 77.6293 110.162 77.6446 110.164 77.6613C110.167 77.7349 110.165 77.8099 110.162 77.8863L110.16 77.9182C110.156 77.9877 110.151 78.0516 110.143 78.1141C110.14 78.1321 110.139 78.1502 110.136 78.1682L110.133 78.1905C110.126 78.2418 110.118 78.2932 110.108 78.3446C110.103 78.3738 110.097 78.4016 110.09 78.4307C110.079 78.4807 110.068 78.5293 110.056 78.5793C110.047 78.6141 110.04 78.6405 110.032 78.6668C110.017 78.7196 110 78.7724 109.982 78.8266L109.976 78.846C109.971 78.8654 109.964 78.8835 109.957 78.903C109.929 78.9807 109.899 79.0571 109.865 79.1349L96.0875 110.638C96.0583 110.703 96.025 110.768 95.9916 110.832L95.9833 110.85C95.9458 110.921 95.9055 110.992 95.8639 111.06L95.85 111.081C95.7903 111.177 95.7264 111.271 95.6569 111.363C95.6555 111.365 95.65 111.374 95.643 111.384C95.6319 111.399 95.6194 111.413 95.6083 111.427L95.5972 111.44C95.55 111.5 95.5028 111.559 95.4541 111.614C95.4403 111.632 95.4305 111.643 95.4208 111.654C95.4097 111.667 95.3972 111.679 95.3861 111.69L95.375 111.702C95.3305 111.75 95.2833 111.797 95.2361 111.845L95.2236 111.857C95.2111 111.871 95.1986 111.884 95.1847 111.896C95.175 111.906 95.1653 111.914 95.1555 111.922C95.1 111.972 95.0486 112.018 94.9958 112.063L94.9791 112.077C94.9653 112.089 94.95 112.103 94.9347 112.114L94.9125 112.132C94.7514 112.261 94.5736 112.384 94.3889 112.49C94.3819 112.496 94.3722 112.502 94.3611 112.507C94.3472 112.515 94.3319 112.522 94.3166 112.529C94.2278 112.578 94.1444 112.62 94.0611 112.66C94.0389 112.672 94.0236 112.679 94.0083 112.686C93.9972 112.692 93.9847 112.696 93.9722 112.702C93.9278 112.721 93.8972 112.734 93.8653 112.746C93.8153 112.767 93.7639 112.786 93.7125 112.804C93.6805 112.815 93.6472 112.828 93.6153 112.839L93.5986 112.845C93.5847 112.85 93.5708 112.854 93.5569 112.859C93.5361 112.865 93.5139 112.871 93.4916 112.878L93.4458 112.89C93.4153 112.899 93.3847 112.909 93.3541 112.915C93.3014 112.929 93.2472 112.94 93.1944 112.953L93.168 112.959C93.143 112.964 93.1166 112.97 93.0903 112.975C93.0305 112.986 92.9708 112.995 92.9111 113.003L92.8847 113.007C92.8639 113.01 92.843 113.014 92.8236 113.015C92.7291 113.027 92.6403 113.034 92.5528 113.036L45.6847 113.047ZM42.143 109.357L43.7055 111.486C44.1416 112.081 44.8625 112.421 45.6847 112.421L92.5444 112.418C92.6069 112.415 92.6819 112.409 92.7569 112.4C92.7694 112.399 92.7819 112.397 92.793 112.395L92.8305 112.389C92.8805 112.382 92.9305 112.375 92.9805 112.365C93 112.361 93.018 112.357 93.0375 112.353L93.068 112.346C93.1125 112.336 93.1583 112.327 93.2028 112.315C93.2278 112.309 93.2528 112.302 93.2764 112.295L93.3333 112.278C93.3472 112.274 93.3597 112.271 93.3736 112.267L93.4236 112.249C93.45 112.24 93.4778 112.229 93.5055 112.22C93.5486 112.204 93.593 112.188 93.6361 112.17C93.6639 112.159 93.6903 112.147 93.7166 112.136L93.7653 112.115C93.7778 112.109 93.7903 112.103 93.8028 112.096C93.875 112.063 93.9444 112.027 94.0139 111.988C94.0264 111.981 94.0389 111.975 94.0514 111.968C94.0639 111.961 94.0722 111.956 94.0819 111.95C94.2403 111.859 94.3917 111.754 94.5319 111.642L94.5667 111.614C94.5778 111.604 94.5889 111.595 94.6 111.585C94.6458 111.547 94.6903 111.509 94.7333 111.468C94.7416 111.46 94.75 111.453 94.7597 111.446L94.7764 111.429C94.7861 111.42 94.7958 111.41 94.8055 111.4C94.8472 111.36 94.8861 111.32 94.925 111.278C94.9347 111.268 94.943 111.259 94.9528 111.249L94.9639 111.238C94.9764 111.222 94.9833 111.213 94.9916 111.203C95.0333 111.154 95.0736 111.106 95.1139 111.056C95.1222 111.045 95.1319 111.034 95.1416 111.022L95.1528 111.009C95.1528 111.007 95.1583 110.999 95.1653 110.99C95.225 110.911 95.2805 110.829 95.3305 110.747L95.343 110.729C95.3778 110.674 95.4097 110.617 95.4403 110.559L95.4472 110.543C95.475 110.489 95.5028 110.435 95.5278 110.379L95.5444 110.342L109.301 78.8863C109.329 78.821 109.356 78.7557 109.378 78.6918L109.399 78.6307C109.414 78.5863 109.428 78.5418 109.44 78.4988C109.446 78.4779 109.451 78.4571 109.457 78.4349C109.469 78.3863 109.479 78.346 109.487 78.3043C109.493 78.2807 109.497 78.2571 109.501 78.2335C109.51 78.1918 109.515 78.1502 109.521 78.1085L109.529 78.0446C109.535 77.9932 109.539 77.9432 109.542 77.8918L109.543 77.8668C109.546 77.8016 109.546 77.7404 109.544 77.6807L109.542 77.6293C109.539 77.5877 109.536 77.546 109.532 77.5043C109.531 77.4863 109.528 77.4696 109.525 77.453C109.518 77.4043 109.512 77.3682 109.507 77.3307C109.506 77.3224 109.504 77.3113 109.503 77.3002L109.494 77.2641C109.487 77.2321 109.479 77.1988 109.471 77.1655C109.464 77.1405 109.46 77.1224 109.454 77.103C109.444 77.0682 109.433 77.0335 109.421 77.0002L109.411 76.9682C109.408 76.9613 109.406 76.9543 109.403 76.9474C109.376 76.8752 109.344 76.8016 109.304 76.7224L109.287 76.6891C109.254 76.6266 109.218 76.5641 109.178 76.503L109.164 76.4807C109.149 76.4571 109.132 76.4335 109.114 76.4099L107.554 74.2835C107.554 74.2974 107.553 74.3113 107.553 74.3238L107.55 74.3557C107.546 74.4252 107.542 74.4891 107.533 74.553C107.531 74.5724 107.528 74.5932 107.525 74.6141L107.522 74.6321C107.515 74.6821 107.507 74.7335 107.499 74.7849C107.493 74.8141 107.487 74.8432 107.481 74.8724C107.469 74.9224 107.458 74.9724 107.446 75.0224C107.437 75.0543 107.431 75.0821 107.422 75.1085C107.407 75.1613 107.39 75.2141 107.372 75.2668L107.365 75.2891C107.36 75.3057 107.354 75.3238 107.347 75.3405C107.319 75.4182 107.289 75.496 107.254 75.5738L93.4986 107.028C93.4639 107.106 93.4264 107.186 93.3805 107.271L93.3736 107.286C93.3319 107.364 93.2889 107.439 93.243 107.513C93.1833 107.609 93.118 107.706 93.0472 107.802C93.0333 107.82 93.0194 107.838 93.0042 107.856L92.9861 107.878C92.9389 107.938 92.8916 107.996 92.843 108.052C92.818 108.081 92.7916 108.11 92.7639 108.139C92.718 108.188 92.6722 108.235 92.625 108.282C92.5916 108.315 92.5666 108.34 92.5403 108.364C92.4903 108.411 92.4375 108.456 92.3847 108.5L92.3611 108.52C92.343 108.535 92.3236 108.552 92.3055 108.567C92.218 108.638 92.1347 108.699 92.0541 108.754C91.9722 108.811 91.8819 108.868 91.7778 108.928C91.7597 108.939 91.7403 108.949 91.7222 108.959L91.6986 108.971C91.618 109.015 91.5347 109.059 91.45 109.097L91.425 109.109C91.4 109.121 91.3736 109.132 91.3486 109.145C91.3194 109.157 91.2903 109.17 91.2611 109.182C91.2041 109.206 91.1528 109.225 91.1 109.245C91.068 109.256 91.0347 109.268 91.0028 109.278C90.9514 109.295 90.9 109.31 90.8486 109.325L90.8319 109.329C90.8014 109.338 90.7708 109.347 90.7403 109.354C90.6875 109.368 90.6333 109.379 90.5791 109.392L90.5528 109.397C90.5278 109.403 90.5014 109.409 90.4764 109.414C90.4166 109.425 90.3569 109.434 90.2972 109.442L90.2708 109.446C90.25 109.449 90.2305 109.452 90.2097 109.454C90.1153 109.465 90.0264 109.472 89.9389 109.475L43.0666 109.478C42.7472 109.485 42.4361 109.44 42.143 109.357Z" fill="#0B1237" fill-opacity="0.1"/>
<path d="M107.347 55.5176L104.734 51.9551L102.49 66.0287L101.6 71.6037H104.525C104.611 71.6037 104.697 71.6065 104.779 71.6134L105.102 69.5898V69.5884L107.347 55.5176Z" fill="#0B1237" fill-opacity="0.01"/>
<path d="M105.043 71.9507L104.754 71.9271C104.681 71.9216 104.603 71.9174 104.525 71.9174H101.233L104.543 51.166L107.676 55.4368L105.433 69.5049L105.413 69.641L105.043 71.9507ZM101.967 71.2924H104.515L104.795 69.5424L107.018 55.598L104.925 52.7438L102.818 65.9521L102.799 66.0799L101.967 71.2924Z" fill="#0B1237" fill-opacity="0.1"/>
<path d="M106.973 75.4521L93.2176 106.906C92.6523 108.199 91.319 109.113 89.9315 109.169L43.0718 109.172C41.6371 109.172 40.5315 108.241 40.3718 106.905L35.9912 69.8771C35.7621 67.9368 37.5815 66.0312 39.6648 66.0312H56.694C58.1287 66.0312 59.2371 66.959 59.3954 68.2951L59.519 69.341C59.6773 70.6785 60.7829 71.6076 62.219 71.6076H104.526C104.612 71.6076 104.698 71.6104 104.78 71.6174C106.707 71.7646 107.786 73.5924 106.973 75.4521Z" fill="#0B1237"/>
<path d="M43.0708 109.485C41.4763 109.485 40.2388 108.439 40.0611 106.943L35.6805 69.9126C35.5666 68.9474 35.9125 67.9293 36.6319 67.121C37.425 66.2293 38.5305 65.7168 39.6652 65.7168H56.6944C58.2902 65.7168 59.5291 66.7612 59.7055 68.2571L59.8291 69.3029C59.968 70.4751 60.9499 71.2932 62.218 71.2932H104.525C104.621 71.2932 104.714 71.2974 104.806 71.3043C105.811 71.3821 106.667 71.889 107.151 72.6946C107.656 73.5321 107.694 74.5835 107.261 75.5765L93.5055 107.031C92.8916 108.435 91.4611 109.42 89.9458 109.481L43.0708 109.485ZM39.6652 66.3432C38.7222 66.3432 37.7638 66.789 37.0986 67.5362C36.4986 68.2112 36.2083 69.0501 36.3013 69.839L40.6819 106.87C40.8208 108.042 41.8027 108.86 43.0708 108.86L89.9305 108.857C91.1805 108.807 92.418 107.953 92.9305 106.782L106.686 75.3279C107.037 74.5224 107.011 73.6807 106.614 73.0182C106.235 72.3876 105.558 71.9904 104.756 71.9293C104.681 71.9237 104.603 71.9196 104.525 71.9196H62.218C60.6236 71.9196 59.3861 70.8737 59.2083 69.3779L59.0847 68.3321C58.9458 67.1612 57.9625 66.3432 56.6944 66.3432H39.6652Z" fill="#0B1237" fill-opacity="0.1"/>
<path d="M101.6 71.9176H62.2176C60.6231 71.9176 59.3856 70.8731 59.2065 69.3773L59.0843 68.3315C58.9454 67.1606 57.962 66.3426 56.694 66.3426H45.4898C45.3981 66.3426 45.312 66.3023 45.2523 66.2329C45.1926 66.1634 45.1676 66.0717 45.1815 65.9815L45.8051 62.0676C45.8287 61.9162 45.9606 61.8037 46.1134 61.8037H54.0051L56.4148 46.6926H48.6231C48.5315 46.6926 48.4454 46.6523 48.3856 46.5829C48.3259 46.5134 48.3009 46.4217 48.3148 46.3315L49.7676 37.219C49.7912 37.0676 49.9231 36.9551 50.0759 36.9551H91.8495C91.9398 36.9551 92.0245 36.994 92.0843 37.062L92.3037 37.312C92.3648 37.3815 92.3926 37.4759 92.3773 37.5676L90.1343 51.6426H104.733C104.825 51.6426 104.911 51.6829 104.97 51.7523C105.03 51.8217 105.055 51.9134 105.041 52.0037L101.908 71.6537C101.884 71.8065 101.754 71.9176 101.6 71.9176ZM45.8565 65.7176H56.6954C58.2898 65.7176 59.5287 66.762 59.7065 68.2579L59.8287 69.3037C59.9676 70.4745 60.9509 71.2926 62.219 71.2926H101.333L104.368 52.2676H89.769C89.6773 52.2676 89.5912 52.2273 89.5315 52.1579C89.4718 52.0884 89.4468 51.9967 89.4607 51.9065L91.7384 37.6134L91.7093 37.5801H50.344L48.9898 46.0676H56.7815C56.8731 46.0676 56.9593 46.1079 57.019 46.1773C57.0787 46.2467 57.1037 46.3384 57.0898 46.4287L54.5801 62.1648C54.5565 62.3162 54.4245 62.4287 54.2718 62.4287H46.3801L45.8565 65.7176ZM86.5745 67.9717H60.8856C60.5815 67.9717 60.3009 67.8481 60.1162 67.6315C59.9343 67.4176 59.8593 67.1384 59.9051 66.8467C59.9968 66.2704 60.5343 65.819 61.1287 65.819H86.8176C87.1204 65.819 87.4009 65.9426 87.5843 66.1579C87.7676 66.3717 87.8426 66.6523 87.7954 66.9454C87.7037 67.5204 87.1676 67.9717 86.5745 67.9717ZM61.1287 66.444C60.844 66.444 60.5662 66.6731 60.5231 66.9454C60.5051 67.0551 60.5301 67.1523 60.5926 67.2259C60.6593 67.3037 60.7634 67.3467 60.8856 67.3467H86.5745C86.8593 67.3467 87.1357 67.1176 87.1787 66.8467C87.1968 66.737 87.1718 66.637 87.1093 66.5634C87.0426 66.4856 86.9398 66.444 86.8176 66.444H61.1287ZM87.3912 62.8523H61.7009C61.3968 62.8523 61.1176 62.7287 60.9329 62.512C60.7495 62.2981 60.6745 62.019 60.7218 61.7259C60.8134 61.1509 61.3509 60.6995 61.9454 60.6995H87.6343C87.9384 60.6995 88.2176 60.8231 88.4023 61.0384C88.5843 61.2523 88.6593 61.5315 88.6134 61.8245C88.5204 62.4009 87.9843 62.8523 87.3912 62.8523ZM61.9454 61.3245C61.6606 61.3245 61.3829 61.5537 61.3398 61.8245C61.3218 61.9356 61.3468 62.0329 61.4093 62.1065C61.4759 62.1842 61.5801 62.2273 61.7023 62.2273H87.3912C87.6759 62.2273 87.9523 61.9981 87.9954 61.7259C88.0134 61.6148 87.9898 61.5176 87.9259 61.444C87.8593 61.3662 87.7565 61.3245 87.6343 61.3245H61.9454ZM88.2079 57.7301H62.519C62.2148 57.7301 61.9343 57.6065 61.7495 57.3898C61.5676 57.1759 61.4926 56.8967 61.5384 56.6051C61.6301 56.0287 62.1676 55.5773 62.762 55.5773H88.4509C88.7537 55.5773 89.0343 55.7009 89.2176 55.9162C89.4009 56.1301 89.4759 56.4106 89.4287 56.7037C89.337 57.2801 88.8009 57.7301 88.2079 57.7301ZM62.762 56.2023C62.4773 56.2023 62.1995 56.4315 62.1565 56.7037C62.1384 56.8134 62.1634 56.9106 62.2259 56.9842C62.2926 57.062 62.3968 57.1051 62.519 57.1051H88.2079C88.4926 57.1051 88.769 56.8759 88.812 56.6051C88.8301 56.4954 88.8051 56.3954 88.7426 56.3217C88.6759 56.244 88.5731 56.2023 88.4509 56.2023H62.762Z" fill="#0B1237" fill-opacity="0.1"/>
<path d="M40.2514 46.127L37.6611 62.3686H54.4889L57.0792 46.127H40.2514ZM54.6556 48.1603L52.7139 60.3339H40.0806L42.0222 48.1603H54.6556Z" fill="#0B1237" fill-opacity="0.8"/>
<path d="M92.0723 37.5195L104.736 51.9556H89.7695L92.0723 37.5195Z" fill="#0B1237" fill-opacity="0.8"/>
<path d="M104.736 52.2678H89.7691C89.6774 52.2678 89.5913 52.2276 89.5316 52.1581C89.4719 52.0887 89.4469 51.997 89.4608 51.9067L91.7635 37.4706C91.783 37.3512 91.8691 37.2526 91.9858 37.2192C92.1024 37.1859 92.2274 37.222 92.308 37.3137L104.972 51.7498C105.052 51.8415 105.072 51.9734 105.022 52.0845C104.969 52.197 104.858 52.2678 104.736 52.2678ZM90.1358 51.6428H104.045L92.2747 38.2262L90.1358 51.6428Z" fill="#0B1237" fill-opacity="0.1"/>
<path d="M89.1739 55.9548C88.9989 55.7492 88.742 55.6367 88.4531 55.6367H62.7628C62.1975 55.6367 61.685 56.0659 61.5989 56.6145C61.5545 56.8895 61.6253 57.1506 61.7961 57.352C61.9697 57.5548 62.2336 57.6714 62.5197 57.6714H88.2086C88.7739 57.6714 89.2836 57.2423 89.3711 56.6951C89.4156 56.4187 89.3447 56.1562 89.1739 55.9548Z" fill="#0B1237"/>
<path d="M87.6343 60.7598H61.9454C61.3801 60.7598 60.869 61.1889 60.7815 61.7362C60.7371 62.0112 60.8079 62.2737 60.9787 62.4737C61.1524 62.6764 61.4149 62.7931 61.7024 62.7931H87.3912C87.9565 62.7931 88.4662 62.3639 88.5537 61.8153C88.5982 61.5403 88.5274 61.2778 88.3565 61.0778C88.1843 60.875 87.9204 60.7598 87.6343 60.7598Z" fill="#0B1237"/>
<path d="M86.8179 65.8789H61.129C60.5637 65.8789 60.0512 66.3081 59.9651 66.8567C59.9207 67.1317 59.9915 67.3928 60.1623 67.5942C60.3359 67.797 60.5998 67.9136 60.8859 67.9136H86.5748C87.1401 67.9136 87.6498 67.4845 87.7373 66.9372C87.7818 66.6622 87.7109 66.3997 87.5401 66.1983C87.3637 65.9914 87.1082 65.8789 86.8179 65.8789Z" fill="#0B1237"/>
<path d="M115.817 54.1953L116.127 56.13C116.313 57.2898 117.109 58.1981 118.255 58.5564L120.167 59.1523L118.064 59.7481C116.806 60.1064 115.72 61.0134 115.163 62.1745L114.237 64.1092L113.926 62.1745C113.739 61.0148 112.944 60.1064 111.798 59.7481L109.887 59.1523L111.988 58.5564C113.246 58.1981 114.333 57.2911 114.889 56.13L115.817 54.1953Z" fill="#0B1237"/>
<path d="M46.0951 35.0957L46.3326 36.579C46.4756 37.4679 47.0854 38.1651 47.9645 38.4388L49.4312 38.8957L47.8187 39.354C46.8534 39.6276 46.0215 40.3235 45.5937 41.2124L44.8826 42.6971L44.6451 41.2124C44.502 40.3235 43.8909 39.6276 43.0131 39.354L41.5479 38.8957L43.159 38.4388C44.1242 38.1651 44.9562 37.4679 45.384 36.579L46.0951 35.0957Z" fill="#0B1237"/>
<path d="M103.497 100.578L103.629 101.406C103.709 101.9 104.05 102.289 104.538 102.442L105.355 102.698L104.458 102.953C103.919 103.106 103.455 103.495 103.218 103.989L102.822 104.817L102.69 103.989C102.609 103.495 102.27 103.106 101.782 102.953L100.965 102.698L101.863 102.442C102.402 102.289 102.865 101.9 103.102 101.406L103.497 100.578Z" fill="#0B1237"/>
<path d="M35.0788 89.6504L35.2108 90.4768C35.2899 90.9726 35.6302 91.3601 36.1205 91.5129L36.9372 91.7684L36.0399 92.024C35.501 92.1768 35.0372 92.5657 34.7997 93.0615L34.4038 93.8879L34.2719 93.0615C34.1941 92.5657 33.8524 92.1782 33.3635 92.024L32.5469 91.7684L33.4441 91.5129C33.983 91.3615 34.4469 90.9726 34.683 90.4768L35.0788 89.6504Z" fill="#0B1237"/>
</svg>
