<svg width="253" height="125" viewBox="0 0 253 125" fill="none" xmlns="http://www.w3.org/2000/svg">
<g clip-path="url(#clip0_168_597)">
<rect x="0.425781" y="69.3252" width="246" height="57" rx="28.5" transform="rotate(-16.1442 0.425781 69.3252)" fill="#00CFFF"/>
<path d="M59.1244 73.2375L61.6621 90.1175L53.5472 92.4665L48.0362 77.5715L47.0219 77.8651L50.3197 93.4008L42.1588 95.7632L35.287 80.1377L39.4828 78.9232L44.6795 90.6611L45.2473 93.7448L46.2617 93.4512L42.9639 77.9155L51.4937 75.4464L56.9816 90.3481L58.019 90.0478L56.9046 87.1473L54.9517 74.4454L59.1244 73.2375ZM63.0236 83.3522C61.9359 79.5944 63.8639 76.5878 67.4833 75.54C71.5177 74.3722 74.48 75.8883 75.5411 79.5538L75.8414 80.5912L67.2424 83.0804C67.8012 84.4927 68.8877 85.0527 70.317 84.6389C71.5389 84.2852 72.2287 83.5609 72.1989 82.595L76.118 81.4606C76.5427 84.136 74.7742 86.5718 71.1779 87.6128C67.2357 88.754 64.078 86.9946 63.0236 83.3522ZM66.6552 81.0517L71.4042 79.6769C70.9152 78.4193 69.8093 77.9649 68.426 78.3653C67.0659 78.759 66.3737 79.734 66.6552 81.0517ZM79.4953 84.9553L74.5904 68.011L78.5325 66.8698L80.2209 72.7024L80.1171 75.106L81.0854 74.8257C81.251 73.1537 81.8613 71.378 84.7661 70.5372C88.178 69.5495 90.5992 71.8719 91.5402 75.1224C92.4878 78.396 91.6882 81.6757 88.2762 82.6633C85.3715 83.5042 83.907 82.3291 82.8672 80.981L81.8989 81.2613L83.2773 83.2609L83.4374 83.8142L79.4953 84.9553ZM81.7424 77.9586C82.2763 79.8029 83.4647 80.2834 85.4012 79.7228C87.3608 79.1556 88.1252 78.0848 87.598 76.2636C87.0775 74.4654 85.866 73.9916 83.9064 74.5588C81.9699 75.1194 81.2219 76.1604 81.7424 77.9586ZM92.6071 71.4905C91.0389 66.0729 93.8265 62.8424 98.1837 61.5811C102.218 60.4133 105.515 61.5326 106.59 65.2443C108.085 70.4083 102.44 73.0915 95.3802 76.4094L95.7005 77.516L98.5252 75.4491L108.692 72.5061L109.76 76.1947L95.4202 80.3455L93.3715 73.2681C98.669 71.2849 103.151 68.988 102.39 66.3599C102.143 65.5069 101.343 64.6394 99.1756 65.2667C96.6166 66.0074 96.0287 67.6018 96.8029 70.276L92.6071 71.4905ZM116.781 67.9408C115.867 64.7825 117.6 62.6567 119.813 62.016C121.22 61.609 122.398 61.9675 123.428 62.5936L123.142 61.6023L118.115 57.9604L117.657 56.2939L130.314 52.6302L131.315 56.0883L124.744 57.9902L131.235 62.6325C131.461 61.3427 131.338 59.8794 130.877 58.2887L134.842 57.1409C135.683 60.0456 135.62 62.7623 134.639 65.0701L138.893 68.1113L136.417 71.1265L132.475 68.2951C131.052 69.6814 129.124 70.7892 126.68 71.4965C121.931 72.8712 117.922 71.883 116.781 67.9408ZM120.673 66.5394C121.173 68.2684 122.975 68.7962 125.765 67.9887C127.286 67.5483 128.497 66.898 129.381 66.0674L127.897 64.9979C125.927 63.5443 124.39 63.2397 122.638 63.7469C121.232 64.154 120.239 65.0409 120.673 66.5394ZM165.935 42.3188L168.473 59.1988L160.358 61.5479L154.847 46.6528L153.833 46.9465L157.131 62.4821L148.97 64.8445L142.098 49.219L146.294 48.0045L151.49 59.7424L152.058 62.8261L153.073 62.5325L149.775 46.9968L158.305 44.5277L163.793 59.4294L164.83 59.1291L163.715 56.2286L161.763 43.5267L165.935 42.3188ZM169.835 52.4335C168.747 48.6757 170.675 45.6691 174.294 44.6214C178.329 43.4535 181.291 44.9696 182.352 48.6351L182.652 49.6725L174.053 52.1617C174.612 53.574 175.699 54.134 177.128 53.7202C178.35 53.3665 179.04 52.6422 179.01 51.6764L182.929 50.5419C183.354 53.2173 181.585 55.6531 177.989 56.6941C174.047 57.8353 170.889 56.0759 169.835 52.4335ZM173.466 50.133L178.215 48.7583C177.726 47.5006 176.62 47.0462 175.237 47.4466C173.877 47.8404 173.185 48.8153 173.466 50.133ZM186.306 54.0366L181.401 37.0923L185.343 35.9511L187.032 41.7837L186.928 44.1873L187.896 43.907C188.062 42.235 188.672 40.4593 191.577 39.6185C194.989 38.6308 197.41 40.9532 198.351 44.2037C199.299 47.4773 198.499 50.757 195.087 51.7446C192.182 52.5855 190.718 51.4104 189.678 50.0623L188.71 50.3426L190.088 52.3422L190.248 52.8955L186.306 54.0366ZM188.553 47.0399C189.087 48.8842 190.276 49.3647 192.212 48.8041C194.172 48.2369 194.936 47.1661 194.409 45.3449C193.888 43.5467 192.677 43.0729 190.717 43.6401C188.781 44.2007 188.033 45.2417 188.553 47.0399ZM203.986 42.1977C204.674 44.5722 205.96 44.6996 208.288 44.0256C210.363 43.425 211.372 42.6831 211.005 41.4151C210.719 40.4238 209.791 40.0677 208.569 40.4214L206.31 41.0754L205.329 37.6865L207.588 37.0325C208.81 36.6788 209.213 36.0873 208.973 35.2574C208.666 34.1969 207.623 33.8742 205.525 34.4815C203.197 35.1555 202.415 35.9065 202.915 37.6355L198.72 38.8501C197.432 34.4008 200.476 31.9704 204.626 30.7692C208.499 29.6481 212.014 30.0546 212.882 33.0515C213.629 35.6335 211.794 36.7146 209.819 37.661L210.119 38.6984C212.261 38.3284 214.514 37.8261 215.401 40.8922C216.376 44.258 213.39 46.5464 209.517 47.6675C205.368 48.8687 201.265 48.5071 199.791 43.4123L203.986 42.1977Z" fill="#0B1237"/>
</g>
<defs>
<clipPath id="clip0_168_597">
<rect x="0.425781" y="69.3252" width="246" height="57" rx="28.5" transform="rotate(-16.1442 0.425781 69.3252)" fill="white"/>
</clipPath>
</defs>
</svg>
