<svg width="204" height="40" viewBox="0 0 204 40" fill="none" xmlns="http://www.w3.org/2000/svg">
<path d="M33.6962 40H6.89792C3.09376 40 0 36.6667 0 32.5455V7.45455C0 3.34546 3.09376 0 6.89792 0H33.6962C37.5003 0 40.5941 3.33333 40.5941 7.45455V32.5455C40.5941 36.6576 37.5003 40 33.6962 40ZM6.89792 2.54849C4.39462 2.54849 2.35569 4.74849 2.35569 7.45455V32.5455C2.35569 35.2515 4.39462 37.4545 6.89792 37.4545H33.6962C36.1995 37.4545 38.2353 35.2515 38.2353 32.5455V7.45455C38.2353 4.74849 36.1995 2.54849 33.6962 2.54849H6.89792Z" fill="#0B1237"/>
<path d="M26.7855 26.4187L22.5877 24.2702V21.1429L28.5569 23.8763V16.3672L31.6783 18.1914V27.1399L23.8609 31.7036L20.7979 29.9157L26.7855 26.4187Z" fill="#0B1237"/>
<path d="M8.91504 27.6162V17.7859L12.0273 15.9707L12.0365 15.9798V24.3313L17.5597 21.104V24.3737L13.7833 26.8859L18.9775 29.9162L17.5597 30.7434L15.9144 31.704L8.91504 27.6162Z" fill="#0B1237"/>
<path d="M12.96 15.9473V12.3897L19.9624 8.29883L27.6538 12.7928V16.3685L21.6047 12.8352V24.3746H18.4801V12.7413L12.9753 15.9564L12.96 15.9473Z" fill="#0B1237"/>
<path d="M52.5938 29.4696V10.3954H60.8265C61.2782 10.3954 61.8316 10.418 62.4866 10.4632C63.1416 10.4858 63.8191 10.5761 64.5193 10.7342C65.2195 10.8697 65.8745 11.1182 66.4843 11.4796C67.0942 11.841 67.5911 12.3379 67.975 12.9703C68.359 13.6027 68.551 14.4158 68.551 15.4096C68.551 16.1324 68.4042 16.7987 68.1105 17.4085C67.8169 18.0183 67.2861 18.5265 66.5182 18.9331C65.7729 19.317 64.6774 19.5542 63.2319 19.6445V19.78C64.8807 19.8252 66.1568 20.0511 67.0603 20.4576C67.9637 20.8642 68.5962 21.395 68.9575 22.05C69.3189 22.6824 69.4996 23.4164 69.4996 24.2521C69.4996 25.2911 69.2963 26.1494 68.8898 26.827C68.4832 27.482 67.9411 27.9902 67.2636 28.3516C66.6086 28.7129 65.8858 28.9727 65.0953 29.1308C64.3273 29.2889 63.5594 29.3905 62.7915 29.4357C62.0461 29.4583 61.3911 29.4696 60.8265 29.4696H52.5938ZM57.2352 17.8828H60.2166C60.7813 17.8828 61.3459 17.8602 61.9106 17.815C62.4753 17.7473 62.9496 17.5892 63.3335 17.3407C63.7175 17.0697 63.9095 16.618 63.9095 15.9855C63.9095 15.3757 63.7288 14.9466 63.3674 14.6981C63.0286 14.4497 62.5769 14.3029 62.0122 14.2577C61.4476 14.2125 60.849 14.1899 60.2166 14.1899H57.2352V17.8828ZM57.2691 25.709H60.386C61.1088 25.709 61.7864 25.6864 62.4188 25.6412C63.0738 25.5734 63.6046 25.3927 64.0111 25.0991C64.4177 24.7829 64.621 24.2634 64.621 23.5407C64.621 22.8179 64.4177 22.3097 64.0111 22.0161C63.6272 21.7225 63.1077 21.5531 62.4527 21.5079C61.8203 21.4401 61.1314 21.4063 60.386 21.4063H57.2691V25.709Z" fill="#0B1237"/>
<path d="M81.1875 29.9439C78.3416 29.9439 76.1846 29.1985 74.7165 27.7078C73.271 26.1946 72.5482 24.0714 72.5482 21.3385V10.3954H77.6301V21.3046C77.6301 22.2532 77.7544 23.0099 78.0028 23.5745C78.2513 24.1166 78.5562 24.5232 78.9176 24.7942C79.3015 25.0652 79.6968 25.2459 80.1033 25.3363C80.5099 25.404 80.8713 25.4379 81.1875 25.4379C81.707 25.4379 82.2378 25.3589 82.7798 25.2008C83.3445 25.0427 83.8188 24.67 84.2028 24.0827C84.5867 23.4955 84.7787 22.5695 84.7787 21.3046V10.3954H89.8606V21.3385C89.8606 24.1166 89.1379 26.251 87.6923 27.7417C86.2694 29.2098 84.1011 29.9439 81.1875 29.9439Z" fill="#0B1237"/>
<path d="M103.252 25.4379V29.4696H93.63V25.4379H96.1032V14.4271H93.63V10.3954H103.252V14.4271H100.812V25.4379H103.252Z" fill="#0B1237"/>
<path d="M125.376 19.9156C125.376 22.4226 124.868 24.3764 123.852 25.7767C122.858 27.1545 121.435 28.1144 119.583 28.6565C117.731 29.1985 115.551 29.4696 113.044 29.4696H107.59V10.3954H113.044C115.551 10.3954 117.731 10.7568 119.583 11.4796C121.435 12.1798 122.858 13.23 123.852 14.6304C124.868 16.0307 125.376 17.7925 125.376 19.9156ZM112.265 25.6073H114.501C115.721 25.6073 116.76 25.4605 117.618 25.1669C118.499 24.8507 119.165 24.286 119.617 23.4729C120.091 22.6372 120.328 21.4401 120.328 19.8817C120.328 18.0748 119.809 16.7196 118.77 15.8161C117.753 14.9127 116.331 14.461 114.501 14.461H112.265V25.6073Z" fill="#0B1237"/>
<path d="M128.764 29.4696V10.3954H133.507V25.4379H141.74V29.4696H128.764Z" fill="#0B1237"/>
<path d="M153.01 29.8084C151.203 29.8084 149.555 29.447 148.064 28.7242C146.573 28.0015 145.387 26.9173 144.507 25.4718C143.626 24.0263 143.197 22.2307 143.219 20.085C143.242 17.9844 143.682 16.1888 144.54 14.6981C145.421 13.1848 146.607 12.0329 148.098 11.2424C149.589 10.4519 151.26 10.0566 153.112 10.0566C155.032 10.0566 156.647 10.4067 157.957 11.1069C159.267 11.7845 160.283 12.6879 161.006 13.8173C161.751 14.924 162.226 16.1211 162.429 17.4085H157.55C157.437 16.5502 157.11 15.9178 156.568 15.5112C156.048 15.1047 155.461 14.8449 154.806 14.732C154.174 14.5965 153.609 14.5287 153.112 14.5287C151.35 14.5287 150.04 14.9917 149.182 15.9178C148.324 16.8212 147.895 18.0861 147.895 19.7123C147.895 21.4966 148.312 22.8857 149.148 23.8795C149.984 24.8733 151.294 25.3702 153.078 25.3702C153.598 25.3702 154.185 25.3024 154.84 25.1669C155.495 25.0088 156.082 24.7039 156.602 24.2521C157.144 23.8004 157.471 23.1228 157.584 22.2194H162.497C162.271 23.552 161.785 24.8055 161.04 25.98C160.294 27.1319 159.255 28.0579 157.923 28.7581C156.613 29.4583 154.975 29.8084 153.01 29.8084Z" fill="#0B1237"/>
<path d="M173.589 29.9439C170.427 29.9439 168.01 29.0517 166.338 27.2674C164.667 25.4605 163.831 23.0325 163.831 19.9833C163.831 17.9731 164.193 16.234 164.916 14.7659C165.638 13.2752 166.722 12.1233 168.168 11.3102C169.614 10.4745 171.42 10.0566 173.589 10.0566C176.751 10.0566 179.156 10.9601 180.805 12.767C182.454 14.5513 183.278 16.9568 183.278 19.9833C183.278 21.9483 182.906 23.6875 182.16 25.2008C181.437 26.6915 180.353 27.8547 178.908 28.6903C177.485 29.526 175.712 29.9439 173.589 29.9439ZM173.521 25.3702C174.673 25.3702 175.621 25.133 176.367 24.6587C177.135 24.1618 177.699 23.5068 178.061 22.6937C178.445 21.858 178.637 20.9545 178.637 19.9833C178.637 18.9895 178.445 18.0748 178.061 17.2391C177.699 16.4034 177.135 15.7371 176.367 15.2402C175.621 14.7433 174.673 14.4948 173.521 14.4948C171.872 14.4948 170.607 15.0143 169.726 16.0533C168.868 17.0923 168.439 18.4023 168.439 19.9833C168.439 20.9319 168.62 21.8241 168.981 22.6598C169.365 23.4729 169.93 24.1279 170.675 24.6248C171.42 25.1217 172.369 25.3702 173.521 25.3702Z" fill="#0B1237"/>
<path d="M198.868 10.3954H203.814V29.4696H194.734L191.177 12.4621H191.109V29.4696H186.197V10.3954H194.599L198.8 27.4029H198.868V10.3954Z" fill="#0B1237"/>
</svg>
