<svg width="15" height="14" viewBox="0 0 15 14" fill="none" xmlns="http://www.w3.org/2000/svg">
<path d="M7.66672 9.67133C9.15893 9.67133 10.3686 8.46167 10.3686 6.96945C10.3686 5.47725 9.15893 4.26758 7.66672 4.26758C6.17451 4.26758 4.96484 5.47725 4.96484 6.96945C4.96484 8.46167 6.17451 9.67133 7.66672 9.67133Z" stroke="white" stroke-width="1.08075" stroke-miterlimit="10"/>
<path d="M10.6375 0.753906H4.69342C2.90277 0.753906 1.45117 2.20551 1.45117 3.99616V9.94028C1.45117 11.731 2.90277 13.1825 4.69342 13.1825H10.6375C12.4282 13.1825 13.8798 11.731 13.8798 9.94028V3.99616C13.8798 2.20551 12.4282 0.753906 10.6375 0.753906Z" stroke="white" stroke-width="1.08075" stroke-linecap="round" stroke-linejoin="round"/>
<path d="M11.1778 4.26761C11.6254 4.26761 11.9883 3.90471 11.9883 3.45705C11.9883 3.00938 11.6254 2.64648 11.1778 2.64648C10.7301 2.64648 10.3672 3.00938 10.3672 3.45705C10.3672 3.90471 10.7301 4.26761 11.1778 4.26761Z" fill="white"/>
</svg>
