<svg width="14" height="14" viewBox="0 0 14 14" fill="none" xmlns="http://www.w3.org/2000/svg">
<path d="M12.4508 0.751953H1.10288C0.804432 0.751953 0.5625 0.993886 0.5625 1.29233V12.6402C0.5625 12.9387 0.804432 13.1806 1.10288 13.1806H12.4508C12.7492 13.1806 12.9911 12.9387 12.9911 12.6402V1.29233C12.9911 0.993886 12.7492 0.751953 12.4508 0.751953Z" stroke="white" stroke-width="1.08075" stroke-linecap="round" stroke-linejoin="round"/>
<path d="M6.23633 5.88672V10.2097" stroke="white" stroke-width="1.08075" stroke-linecap="round" stroke-linejoin="round"/>
<path d="M4.07617 5.88477V10.2078" stroke="white" stroke-width="1.08075" stroke-linecap="round" stroke-linejoin="round"/>
<path d="M6.23633 7.77803C6.23633 7.27639 6.43559 6.79536 6.79028 6.44067C7.14494 6.08598 7.626 5.88672 8.12764 5.88672C8.62928 5.88672 9.11035 6.08598 9.465 6.44067C9.81966 6.79536 10.019 7.27639 10.019 7.77803V10.2097" stroke="white" stroke-width="1.08075" stroke-linecap="round" stroke-linejoin="round"/>
<path d="M4.07423 4.53519C4.5219 4.53519 4.8848 4.17229 4.8848 3.72463C4.8848 3.27696 4.5219 2.91406 4.07423 2.91406C3.62657 2.91406 3.26367 3.27696 3.26367 3.72463C3.26367 4.17229 3.62657 4.53519 4.07423 4.53519Z" fill="white"/>
</svg>
