<svg width="98" height="13" viewBox="0 0 98 13" fill="none" xmlns="http://www.w3.org/2000/svg">
<path d="M96.3845 1.75393C97.46 2.62381 96.3213 3.99982 95.3723 3.30397C94.2018 2.56061 91.5447 2.21269 91.2126 3.85746C90.7855 6.4514 97.6656 4.9647 97.5549 9.17175C97.4442 13.1892 91.6238 13.2841 89.4412 11.481C88.9192 11.054 88.935 10.358 89.2198 9.93094C89.6309 9.51981 90.0896 9.37745 90.6273 9.82024C91.9243 10.706 95.2616 11.3703 95.4988 9.12439C95.2932 6.78349 88.7136 8.19116 89.2039 3.69939C89.5677 0.630985 94.2018 0.0773615 96.3845 1.75393ZM86.0085 2.37075V8.09629C86.0085 14.0116 76.4712 14.0116 76.4712 8.09629V2.37075C76.4712 0.947371 78.5432 0.884046 78.5432 2.37075V8.09629C78.5432 11.2121 83.9365 11.4019 83.9365 8.09629V2.37075C83.9365 0.963076 86.0085 0.852379 86.0085 2.37075ZM20.7009 0.931544C23.4687 1.07378 26.3631 2.98757 26.3631 6.73612C26.3631 10.4845 23.4687 12.43 20.7009 12.43C17.7748 12.5565 14.7381 10.6111 14.7381 6.73612C14.7381 2.84521 17.7748 0.931544 20.7009 0.931544ZM34.6354 1.32684C38.6528 1.32684 39.4752 6.70445 36.1222 8.04879L38.2257 10.6111C39.0481 11.829 37.4032 12.9993 36.4543 11.7973L34.066 8.38102H31.5828V11.2437C31.5828 12.6197 29.4792 12.6672 29.4792 11.2754V2.29171C29.4792 1.73809 29.9063 1.32684 30.4283 1.32684H34.6354ZM1.86304 1.1846C2.32173 1.1846 2.59062 1.45349 2.85951 1.75393L6.33905 6.4514L9.94524 1.5799C10.4671 0.931549 11.7483 1.1846 11.7483 2.27589V11.1805C11.7483 11.8764 11.3054 12.2718 10.7993 12.2718C10.2299 12.2718 9.78704 11.8764 9.78704 11.1805V5.32845L7.16155 8.64991C6.5921 9.34577 5.88041 9.34577 5.35846 8.64991L3.00182 5.32845V11.1805C3.00182 11.8764 2.43243 12.2718 1.86304 12.2718C1.35692 12.2718 0.914062 11.8764 0.914062 11.1805V2.27588C0.914062 1.4535 1.60998 1.1846 1.86304 1.1846ZM46.1026 1.1846C48.1588 1.1846 50.0093 2.56061 50.0093 5.20192C50.0093 7.70087 48.1588 9.09271 46.1026 9.09271H43.4613V11.1805C43.4613 11.8764 43.0184 12.2718 42.449 12.2718C41.9271 12.2718 41.3735 11.8764 41.3735 11.1805V2.27588C41.3735 1.75393 41.7848 1.1846 42.449 1.1846H46.1026ZM61.2077 1.32683C61.7613 1.32683 62.1884 1.73809 62.1884 2.30755V11.2912C62.1884 11.8447 61.7613 12.2718 61.2077 12.2718C60.6384 12.2718 60.1322 11.8447 60.1322 11.2912V7.8274H54.9761V11.2912C54.9761 11.8447 54.5649 12.2718 54.0113 12.2718C53.2996 12.2718 52.8883 11.8447 52.8883 11.2912V2.30755C52.8883 1.7381 53.2996 1.32683 54.0113 1.32683C54.5649 1.32683 54.9761 1.73809 54.9761 2.30755V5.75554H60.1322V2.30755C60.1322 1.7381 60.6384 1.32683 61.2077 1.32683ZM72.2164 1.32683C73.6714 1.32683 73.6397 3.38299 72.2164 3.38299H67.6613V5.75554H71.6469C73.0546 5.75554 73.0546 7.8274 71.6469 7.8274H67.6613V10.1998H72.4853C73.9245 10.1998 74.0352 12.2718 72.4853 12.2718H66.5383C65.9847 12.2718 65.5576 11.8447 65.5576 11.2912V2.30755C65.5576 1.7381 65.9847 1.32683 66.5383 1.32683H72.2164ZM20.5268 2.98757C18.7554 2.98757 16.8259 4.23718 16.8259 6.73612C16.8259 9.21924 18.7554 10.4845 20.5268 10.4845C22.3458 10.4845 24.2912 9.21924 24.2912 6.73612C24.2912 4.23717 22.3458 2.98757 20.5268 2.98757ZM46.1026 3.17743H43.4613V7.11572H46.1026C47.1623 7.11572 48.0006 6.18251 48.0006 5.20192C48.0006 4.09481 47.1623 3.17743 46.1026 3.17743ZM34.6354 3.24063H31.5828V6.56209H34.6354C36.6915 6.56209 36.818 3.24063 34.6354 3.24063Z" fill="#CCCCCC"/>
</svg>
