<svg width="16" height="15" viewBox="0 0 16 15" fill="none" xmlns="http://www.w3.org/2000/svg">
<path d="M7.21133 4.31638C7.21133 2.83035 8.46091 1.59424 9.94698 1.6145C10.4674 1.62051 10.975 1.77669 11.4088 2.06429C11.8425 2.35187 12.1841 2.75861 12.3922 3.23563H14.7766L12.5948 5.4174C12.454 7.609 11.4839 9.66476 9.88162 11.1667C8.27934 12.6686 6.16521 13.5038 3.96908 13.5027C1.80758 13.5027 1.2672 12.6922 1.2672 12.6922C1.2672 12.6922 3.4287 11.8816 4.50945 10.2605C4.50945 10.2605 0.186454 8.09897 1.2672 2.15488C1.2672 2.15488 3.96908 4.85675 7.21133 5.39713V4.31638Z" stroke="white" stroke-width="1.35094" stroke-linecap="round" stroke-linejoin="round"/>
</svg>
