<svg width="16" height="15" viewBox="0 0 16 15" fill="none" xmlns="http://www.w3.org/2000/svg">
<path d="M6.84414 4.26657C6.84414 2.78054 8.09372 1.54443 9.5798 1.5647C10.1002 1.57071 10.6078 1.72689 11.0416 2.01448C11.4753 2.30206 11.8169 2.70881 12.025 3.18582H14.4094L12.2276 5.36759C12.0868 7.5592 11.1167 9.61496 9.51443 11.1169C7.91216 12.6187 5.79802 13.454 3.60189 13.4529C1.44039 13.4529 0.900016 12.6424 0.900016 12.6424C0.900016 12.6424 3.06152 11.8318 4.14227 10.2107C4.14227 10.2107 -0.180734 8.04916 0.900016 2.10507C0.900016 2.10507 3.60189 4.80695 6.84414 5.34732V4.26657Z" stroke="white" stroke-width="1.35094" stroke-linecap="round" stroke-linejoin="round"/>
</svg>
