<svg width="89" height="26" viewBox="0 0 89 26" fill="none" xmlns="http://www.w3.org/2000/svg">
<path d="M88.256 7.26903H84.4021L81.7007 14.2334L79.0135 7.26903H75.1596L79.8448 18.274L76.9308 25.5499H80.7565L88.256 7.26903ZM64.8177 13.3902C64.8177 15.1483 66.3545 16.3053 67.8642 16.3053C69.3478 16.3053 70.8053 15.2287 70.8053 13.3891C70.8053 11.5495 69.3478 10.4718 67.8642 10.4718C66.3545 10.4718 64.8177 11.6298 64.8177 13.3891V13.3902ZM70.8053 19.5352V18.1427C70.0239 19.3257 68.2006 19.7728 67.2651 19.7728C64.1676 19.7728 61.0691 17.3309 61.0691 13.3891C61.0691 9.44833 64.1665 7.00639 67.2651 7.00639C68.0454 7.00639 69.8687 7.26686 70.8053 8.63435V7.27337H74.3977V19.5373L70.8053 19.5362V19.5352ZM60.0467 19.5352H56.4543V18.0114C55.8542 19.1401 54.3988 19.7978 52.888 19.7978C49.7634 19.7978 47.0035 17.3027 47.0035 13.439C47.0035 9.50259 49.7634 7.00422 52.888 7.00422C54.3966 7.00422 55.8563 7.63369 56.4543 8.7635V0.587891H60.0467V19.5352ZM56.3762 13.3619C56.3762 11.5234 55.0489 10.4457 53.5653 10.4457C52.0285 10.4457 50.7522 11.6016 50.7522 13.3619C50.7522 15.1787 52.0285 16.3292 53.5642 16.3292C55.076 16.3313 56.3762 15.1223 56.3762 13.3619ZM38.1214 13.045C38.1214 11.1805 39.0851 10.5499 40.3604 10.5499C41.5835 10.5499 42.4691 11.3639 42.4691 12.9918V19.533H46.0875V12.205C46.0875 8.71249 44.3684 7.00422 41.6345 7.00422C40.203 7.00422 38.7715 7.8182 38.1203 9.05327V7.26903H34.504V19.533H38.1214V13.045ZM27.1565 19.7435C23.7205 19.7435 20.8542 17.2224 20.8542 13.3609C20.8542 9.49716 23.7172 7.00096 27.1565 7.00096C30.5959 7.00096 33.4839 9.49716 33.4839 13.3609C33.4839 17.2245 30.5926 19.7446 27.1565 19.7446V19.7435ZM27.1565 16.1729C28.6651 16.1729 29.9165 15.068 29.9165 13.3619C29.9165 11.7068 28.6662 10.577 27.1565 10.577C26.4219 10.5655 25.7148 10.8563 25.2008 11.3813C24.6839 11.9089 24.4031 12.6236 24.4226 13.3619C24.4237 15.0702 25.6729 16.1729 27.1565 16.1729ZM14.3673 10.551C15.4341 10.551 16.3718 11.3921 16.3718 12.9929V19.5352H19.9642V12.5697C19.9642 8.8666 18.1637 7.00205 15.2779 7.00205C14.4205 7.00205 12.8055 7.26252 11.6334 9.18134C10.9562 7.76285 9.65489 7.02701 7.73173 7.02701C6.36802 7.02007 5.12621 7.81116 4.55613 9.05002V7.27012H0.935547V19.5341H4.55287V13.045C4.55287 11.1805 5.56872 10.5499 6.66162 10.5499C7.70351 10.5499 8.63905 11.3639 8.66618 12.9137V19.5341H12.2846V13.045C12.2846 11.2619 13.2223 10.5521 14.3673 10.5521V10.551Z" fill="#CCCCCC" fill-opacity="0.8"/>
</svg>
