<svg width="1512" height="637" viewBox="0 0 1512 637" fill="none" xmlns="http://www.w3.org/2000/svg">
<path opacity="0.2" d="M-327 1.00001C-310.78 103.899 -48.8467 106.914 -35.5293 300.849C-7.51275 708.84 691.068 -157.702 753.358 73.2587C877.713 534.338 2187.77 460.932 2217.59 534.338M-269.984 351.95C-234.267 258.555 -118.793 104.403 57.3678 234.96C277.568 398.157 396.516 720.617 655.055 615.424C913.594 510.231 1199.66 112.072 1337.28 363.748M-324.285 30.6807C-307.137 124.232 -52.1777 119.763 -31.1058 310.68C6.06236 707.014 677.041 -102.908 748.677 112.045C879.421 546.159 2140.72 457.289 2175.67 539.183M-321.57 60.3615C-303.493 144.566 -55.5081 132.613 -26.6818 320.511C19.638 705.189 663.015 -48.1145 743.996 150.831C881.13 557.98 2093.67 453.645 2133.75 544.029M-318.855 90.0422C-299.85 164.899 -58.8391 145.462 -22.2584 330.343C33.213 703.363 648.989 6.679 739.315 189.617C882.839 569.801 2046.61 450.001 2091.83 548.874M-316.14 119.722C-296.206 185.231 -62.1695 158.31 -17.8344 340.173C46.7886 701.537 634.963 61.4716 734.634 228.403C884.547 581.621 1999.56 446.357 2049.92 553.719M-313.425 149.403C-292.562 205.565 -65.5005 171.159 -13.4109 350.004C60.3637 699.711 620.937 116.265 729.953 267.189C886.256 593.441 1952.51 442.713 2008 558.564M-310.71 179.083C-288.919 225.898 -68.8314 184.008 -8.98745 359.835C73.9388 697.885 606.91 171.059 725.272 305.975C887.964 605.262 1905.46 439.07 1966.08 563.41M-307.994 208.764C-285.275 246.232 -72.1619 196.858 -4.56347 369.667C87.5144 696.06 592.884 225.852 720.591 344.761C889.673 617.083 1858.4 435.426 1924.16 568.255M-305.28 238.445C-281.632 266.565 -75.4928 209.707 -0.139992 379.498C101.089 694.234 578.858 280.646 715.909 383.547C891.382 628.904 1811.35 431.782 1882.24 573.101M-302.565 268.126C-277.989 286.898 -78.8237 222.556 4.28352 389.329C114.665 692.408 564.831 335.439 711.228 422.334C893.09 640.725 1764.3 428.139 1840.32 577.946M-299.849 297.806C-274.345 307.232 -82.1542 235.405 8.70749 399.16C128.24 690.583 550.805 390.233 706.547 461.12C894.799 652.546 1717.24 424.495 1798.4 582.792M-297.134 327.486C-270.702 327.564 -85.4851 248.254 13.131 408.991C141.815 688.756 536.779 445.025 701.866 499.905C896.507 664.366 1670.19 420.851 1756.48 587.636M-294.419 357.167C-267.058 347.898 -88.8156 261.103 17.5549 418.822C155.391 686.93 522.753 499.819 697.185 538.691C898.216 676.187 1623.14 417.207 1714.56 592.482M-291.704 379.511C-263.415 360.895 -92.1465 266.616 21.9784 421.317C168.966 677.768 508.726 547.276 692.504 570.141C899.925 680.671 1576.08 406.227 1672.64 589.991M-288.989 386.9C-259.771 358.936 -95.4775 257.173 26.4019 408.856C182.541 653.651 494.7 579.777 687.823 586.635C901.633 670.2 1529.03 380.291 1630.72 572.544M-286.274 391.052C-256.128 353.741 -98.8079 244.494 30.8259 393.159C196.117 626.297 480.674 609.042 683.142 599.893C903.342 656.492 1481.98 351.119 1588.8 551.861M-283.559 387.259C-252.484 340.6 -102.139 223.869 35.2493 369.516C209.692 590.997 466.647 630.362 678.46 605.205C905.051 634.839 1434.92 314.001 1546.88 523.232M-280.844 380.311C-248.841 324.304 -105.47 200.089 39.6728 342.718C223.267 552.542 452.621 648.526 673.779 607.362C906.759 610.031 1387.87 273.729 1504.96 491.449M-278.129 373.257C-245.197 307.904 -108.8 176.204 44.0968 315.816C236.842 513.983 438.595 666.586 669.098 609.415C908.468 585.118 1340.82 233.351 1463.04 459.561M-275.414 366.169C-241.554 291.468 -112.131 152.285 48.5203 288.878C250.418 475.388 424.568 684.61 664.417 611.432C910.176 560.17 1293.76 192.939 1421.12 427.637M-272.699 359.064C-237.91 275.016 -115.462 128.348 52.9443 261.923C263.993 436.777 410.542 702.618 659.736 613.433C911.885 535.205 1246.71 152.51 1379.2 395.697" stroke="#D1D1D6" stroke-width="0.846786"/>
</svg>
