<svg width="1279" height="296" viewBox="0 0 1279 296" fill="none" xmlns="http://www.w3.org/2000/svg">
<path opacity="0.2" d="M-309 0.999992C-298.884 65.1755 -135.523 67.056 -127.217 188.008C-109.744 442.462 325.944 -97.9782 364.793 46.0659C442.35 333.63 1259.4 287.848 1278 333.63M-273.44 219.879C-251.165 161.631 -179.146 65.4899 -69.2793 146.915C68.0543 248.697 142.239 449.807 303.483 384.201C464.728 318.595 643.139 70.2726 728.972 227.237M-307.307 19.5111C-296.612 77.857 -137.6 75.0697 -124.458 194.14C-101.277 441.324 317.196 -63.8049 361.873 70.256C443.415 341.002 1230.06 285.576 1251.86 336.652M-305.613 38.0223C-294.339 90.5384 -139.677 83.0835 -121.699 200.271C-92.8105 440.185 308.448 -29.6315 358.954 94.4459C444.481 348.375 1200.71 283.303 1225.71 339.674M-303.92 56.5334C-292.067 103.22 -141.755 91.0972 -118.94 206.403C-84.344 439.047 299.7 4.54183 356.034 118.636C445.546 355.747 1171.36 281.031 1199.57 342.696M-302.227 75.0439C-289.794 115.901 -143.832 99.1103 -116.181 212.534C-75.8773 437.907 290.953 38.7146 353.115 142.825C446.612 363.119 1142.02 278.758 1173.42 345.717M-300.533 93.5551C-287.522 128.582 -145.909 107.124 -113.422 218.665C-67.4108 436.769 282.205 72.8879 350.195 167.015C447.678 370.491 1112.67 276.486 1147.28 348.739M-298.84 112.066C-285.25 141.263 -147.987 115.138 -110.663 224.797C-58.9444 435.63 273.457 107.061 347.276 191.205C448.743 377.863 1083.33 274.213 1121.13 351.761M-297.147 130.577C-282.977 153.945 -150.064 123.152 -107.904 230.928C-50.4776 434.492 264.709 141.235 344.356 215.395C449.809 385.236 1053.98 271.941 1094.99 354.783M-295.454 149.089C-280.705 166.626 -152.141 131.165 -105.145 237.06C-42.0112 433.353 255.961 175.408 341.437 239.585C450.875 392.608 1024.64 269.668 1068.85 357.805M-293.76 167.6C-278.433 179.308 -154.219 139.179 -102.387 243.191C-33.5447 432.214 247.213 209.581 338.517 263.775C451.94 399.981 995.289 267.396 1042.7 360.827M-292.067 186.111C-276.16 191.989 -156.296 147.193 -99.6275 249.323C-25.0779 431.076 238.465 243.755 335.598 287.965C453.006 407.353 965.944 265.123 1016.56 363.849M-290.374 204.621C-273.888 204.67 -158.373 155.206 -96.8687 255.454C-16.6115 429.936 229.717 277.927 332.678 312.155C454.071 414.725 936.598 262.85 990.414 366.87M-288.68 223.132C-271.616 217.351 -160.45 163.22 -94.1096 261.585C-8.14474 428.798 220.97 312.101 329.759 336.345C455.137 422.097 907.252 260.578 964.27 369.892M-286.987 237.068C-269.343 225.457 -162.528 166.658 -91.3508 263.141C0.321722 423.084 212.222 341.699 326.839 355.959C456.203 424.894 877.906 253.73 938.126 368.339M-285.294 241.676C-267.071 224.236 -164.605 160.769 -88.592 255.37C8.78818 408.042 203.474 361.969 323.92 366.246C457.268 418.363 848.56 237.555 911.981 357.458M-283.6 244.266C-264.799 220.996 -166.682 152.861 -85.8328 245.58C17.2549 390.982 194.726 380.221 321 374.515C458.334 409.814 819.214 219.361 885.837 344.559M-281.907 241.9C-262.526 212.8 -168.76 139.998 -83.074 230.834C25.7214 368.966 185.978 393.517 318.081 377.828C459.399 396.31 789.868 196.211 859.693 326.703M-280.214 237.567C-260.254 202.637 -170.837 125.167 -80.3152 214.121C34.1878 344.983 177.23 404.846 315.161 379.173C460.465 380.838 760.522 171.094 833.549 306.881M-278.52 233.168C-257.982 192.408 -172.914 110.271 -77.5561 197.343C42.6546 320.935 168.482 416.109 312.242 380.453C461.531 365.3 731.176 145.912 807.405 286.993M-276.827 228.747C-255.709 182.158 -174.992 95.3525 -74.7973 180.542C51.1211 296.864 159.735 427.351 309.322 381.711C462.596 349.74 701.83 120.707 781.26 267.083M-275.134 224.316C-253.437 171.897 -177.069 80.424 -72.0381 163.732C59.5878 272.783 150.987 438.582 306.403 382.959C463.662 334.17 672.485 95.4928 755.116 247.163" stroke="#0B1237" stroke-width="0.52812"/>
</svg>
