<svg width="1065" height="519" viewBox="0 0 1065 519" fill="none" xmlns="http://www.w3.org/2000/svg">
<path opacity="0.2" d="M1534.51 0.831654C1535.75 67.0162 1372.18 97.8851 1385.3 220.715C1412.91 479.119 879.89 14.1695 866.467 165.587C839.668 467.871 11.7644 566.891 1.22724 616.125M1537.67 226.75C1504.98 172.259 1415.67 88.5745 1319.88 189.763C1200.15 316.249 1161.39 531.193 987.97 493.974C814.548 456.756 591.486 239.256 533.213 411.973M1536.1 19.705C1535.72 80.1431 1375.68 105.557 1383.62 227.356C1404.22 479.478 894.73 46.905 873.687 189.34C839.907 475.457 40.8055 559.405 27.9951 614.518M1537.68 38.5784C1535.69 93.27 1379.19 113.229 1381.94 233.998C1395.52 479.838 909.57 79.6405 880.908 213.093C840.146 483.043 69.846 551.918 54.7625 612.912M1539.27 57.4517C1535.66 106.397 1382.69 120.901 1380.26 240.639C1386.82 480.198 924.41 112.376 888.129 236.845C840.384 490.629 98.8869 544.432 81.5303 611.306M1540.85 76.3245C1535.63 119.523 1386.2 128.572 1378.58 247.28C1378.13 480.557 939.249 145.111 895.35 260.598C840.623 498.214 127.927 536.945 108.298 609.699M1542.44 95.1979C1535.6 132.65 1389.71 136.244 1376.9 253.922C1369.43 480.916 954.089 177.846 902.571 284.35C840.862 505.8 156.968 529.459 135.065 608.093M1544.02 114.071C1535.57 145.777 1393.21 143.916 1375.22 260.563C1360.73 481.276 968.929 210.582 909.792 308.103C841.101 513.386 186.009 521.973 161.833 606.487M1545.61 132.945C1535.54 158.904 1396.72 151.588 1373.54 267.205C1352.04 481.636 983.769 243.317 917.012 331.856C841.339 520.972 215.05 514.486 188.6 604.881M1547.2 151.818C1535.51 172.031 1400.22 159.26 1371.86 273.846C1343.34 481.995 998.609 276.053 924.233 355.609C841.578 528.558 244.09 507 215.368 603.274M1548.78 170.691C1535.48 185.158 1403.73 166.932 1370.18 280.487C1334.64 482.355 1013.45 308.788 931.454 379.362C841.817 536.144 273.131 499.514 242.136 601.668M1550.37 189.565C1535.45 198.285 1407.24 174.604 1368.5 287.129C1325.94 482.715 1028.29 341.524 938.675 403.115C842.056 543.73 302.172 492.027 268.903 600.062M1551.95 208.437C1535.42 211.411 1410.74 182.276 1366.82 293.77C1317.25 483.074 1043.13 374.259 945.896 426.867C842.294 551.316 331.213 484.54 295.671 598.455M1553.54 227.311C1535.39 224.538 1414.25 189.948 1365.14 300.411C1308.55 483.433 1057.97 406.994 953.116 450.62C842.533 558.902 360.253 477.054 322.438 596.849M1554.31 241.593C1534.55 233.074 1416.94 193.029 1362.65 302.462C1299.04 479.202 1072 435.139 959.526 469.782C841.96 561.897 388.482 464.977 348.394 590.652M1553.43 246.517C1532.05 232.251 1417.98 186.751 1358.5 295.154C1287.88 465.612 1084.37 453.925 964.28 479.585C839.732 555.534 415.056 443.541 372.696 575.096M1552.19 249.416C1529.19 229.404 1418.66 178.449 1353.99 285.821C1276.36 449.998 1096.38 470.686 968.676 487.363C837.146 547.145 441.272 420.08 396.638 557.516M1550.07 247.343C1525.46 221.584 1418.47 165.174 1348.61 271.515C1263.96 429.41 1107.52 482.475 972.193 490.169C833.681 533.785 466.609 391.647 419.702 534.963M1547.6 243.295C1521.38 211.79 1417.92 149.925 1342.88 255.236C1251.21 406.849 1118.31 492.289 975.361 491.001C829.867 518.45 491.597 361.24 442.417 510.436M1545.12 239.182C1517.28 201.93 1417.36 134.61 1337.13 238.891C1238.45 384.222 1129.08 502.038 978.517 491.768C826.042 503.049 516.573 330.767 465.12 485.843M1542.64 235.047C1513.19 192.049 1416.8 119.274 1331.38 222.524C1225.68 361.573 1139.85 511.765 981.67 492.512C822.212 487.627 541.546 300.272 487.819 461.228M1540.15 230.901C1509.08 182.157 1416.23 103.927 1325.63 206.146C1212.91 338.914 1150.62 521.482 984.82 493.246C818.38 472.194 566.516 269.767 510.517 436.603" stroke="#0B1237" stroke-width="0.538103"/>
</svg>
