<svg width="1512" height="360" viewBox="0 0 1512 360" fill="none" xmlns="http://www.w3.org/2000/svg">
<path opacity="0.2" d="M1608.74 0.999922C1610.54 97.5041 1372.04 142.514 1391.17 321.613C1431.44 698.393 654.231 20.4479 634.658 241.231C595.583 681.992 -611.589 826.375 -626.954 898.163M1613.34 330.414C1565.68 250.96 1435.45 128.938 1295.78 276.483C1121.2 460.913 1064.69 774.323 811.823 720.054C558.955 665.786 233.707 348.648 148.739 600.487M1611.05 28.5193C1610.5 116.644 1377.15 153.701 1388.72 331.297C1418.75 698.918 675.869 68.1797 645.187 275.865C595.931 693.054 -569.244 815.459 -587.923 895.821M1613.36 56.0387C1610.46 135.785 1382.26 164.887 1386.27 340.981C1406.07 699.442 697.507 115.912 655.715 310.499C596.279 704.115 -526.9 804.543 -548.893 893.479M1615.68 83.5581C1610.41 154.925 1387.37 176.074 1383.82 350.665C1393.39 699.967 719.145 163.643 666.244 345.133C596.627 715.176 -484.555 793.627 -509.863 891.137M1617.99 111.077C1610.37 174.065 1392.49 187.26 1381.37 360.348C1380.71 700.49 740.783 211.374 676.772 379.767C596.975 726.237 -442.211 782.711 -470.833 888.794M1620.3 138.596C1610.32 193.205 1397.6 198.446 1378.92 370.032C1368.03 701.015 762.421 259.106 687.301 414.401C597.323 737.298 -399.867 771.795 -431.803 886.452M1622.61 166.115C1610.28 212.346 1402.71 209.633 1376.47 379.716C1355.35 701.539 784.059 306.838 697.83 449.035C597.672 748.359 -357.522 760.879 -392.773 884.11M1624.92 193.635C1610.24 231.486 1407.82 220.819 1374.02 389.4C1342.67 702.063 805.697 354.57 708.359 483.669C598.019 759.42 -315.178 749.963 -353.743 881.768M1627.23 221.154C1610.19 250.627 1412.93 232.006 1371.57 399.084C1329.99 702.588 827.335 402.302 718.888 518.303C598.368 770.482 -272.833 739.047 -314.713 879.426M1629.54 248.673C1610.15 269.767 1418.05 243.192 1369.12 408.768C1317.31 703.112 848.973 450.034 729.417 552.937C598.716 781.543 -230.489 728.131 -275.683 877.084M1631.86 276.193C1610.1 288.908 1423.16 254.379 1366.67 418.452C1304.63 703.637 870.611 497.766 739.945 587.571C599.064 792.604 -188.144 717.215 -236.653 874.742M1634.17 303.711C1610.06 308.047 1428.27 265.565 1364.22 428.135C1291.94 704.16 892.249 545.496 750.474 622.205C599.412 803.665 -145.8 706.299 -197.623 872.399M1636.48 331.231C1610.02 327.188 1433.38 276.751 1361.77 437.819C1279.26 704.685 913.887 593.228 761.002 656.839C599.76 814.726 -103.456 695.383 -158.593 870.057M1637.61 352.056C1608.79 339.634 1437.31 281.244 1358.14 440.809C1265.4 698.515 934.342 634.266 770.348 684.779C598.925 819.093 -62.2944 677.773 -120.747 861.021M1636.32 359.236C1605.15 338.435 1438.83 272.09 1352.09 430.153C1249.12 678.7 952.383 661.658 777.28 699.073C595.676 809.815 -23.5463 646.517 -85.313 838.339M1634.51 363.463C1600.99 334.283 1439.82 259.985 1345.52 416.544C1232.32 655.932 969.902 686.098 783.69 710.415C591.906 797.584 14.6793 612.309 -50.4019 812.705M1631.42 360.439C1595.54 322.88 1439.53 240.628 1337.67 395.686C1214.24 625.913 986.14 703.287 788.818 714.506C586.854 778.102 51.6233 570.851 -16.7723 779.82M1627.83 354.538C1589.59 308.6 1438.73 218.394 1329.31 371.948C1195.65 593.017 1001.87 717.598 793.438 715.72C581.292 755.742 88.0585 526.514 16.3484 744.057M1624.21 348.54C1583.62 294.223 1437.92 196.064 1320.94 348.116C1177.04 560.024 1017.58 731.813 798.04 716.837C575.714 733.287 124.476 482.081 49.4517 708.198M1620.59 342.511C1577.64 279.815 1437.1 173.701 1312.55 324.251C1158.43 527 1033.29 745.996 802.637 717.922C570.13 710.799 160.889 437.616 82.5497 672.307M1616.97 336.466C1571.66 265.391 1436.28 151.324 1304.17 300.371C1139.81 493.96 1048.99 760.164 807.23 718.992C564.543 688.297 197.298 393.136 115.645 636.401" stroke="#D1D1D6" stroke-width="0.784612"/>
</svg>
