<svg width="210" height="168" viewBox="0 0 210 168" fill="none" xmlns="http://www.w3.org/2000/svg">
<path d="M0.49162 -53.9665C0.49162 -76.9094 19.0906 -95.5084 42.0335 -95.5084C64.9765 -95.5084 83.5754 -76.9094 83.5754 -53.9665V27.1508C83.5754 50.0938 64.9765 68.6927 42.0335 68.6927C19.0906 68.6927 0.49162 50.0938 0.49162 27.1508V-53.9665ZM0.49162 113.676C0.49162 90.733 19.0906 72.1341 42.0335 72.1341C64.9765 72.1341 83.5754 90.733 83.5754 113.676C83.5754 136.619 64.9765 155.218 42.0335 155.218C19.0906 155.218 0.49162 136.619 0.49162 113.676ZM87.5084 -25.4525C87.5084 -58.9845 114.691 -86.1676 148.223 -86.1676C181.755 -86.1676 208.939 -58.9845 208.939 -25.4525V106.793C208.939 140.325 181.755 167.508 148.223 167.508C114.691 167.508 87.5084 140.325 87.5084 106.793V-25.4525Z" stroke="#2EC866" stroke-width="0.98324"/>
</svg>
