<svg width="382" height="480" viewBox="0 0 382 480" fill="none" xmlns="http://www.w3.org/2000/svg">
<path d="M77.7877 1.13297C35.4525 1.13297 1.13297 35.4524 1.13297 77.7877V224.045C1.13297 266.38 35.4525 300.699 77.7877 300.699C120.123 300.699 154.442 266.38 154.442 224.045V77.7877C154.442 35.4525 120.123 1.13297 77.7877 1.13297ZM77.7877 303.397C35.4525 303.397 1.13297 337.717 1.13297 380.052C1.13297 422.387 35.4525 456.707 77.7877 456.707C120.123 456.707 154.442 422.387 154.442 380.052C154.442 337.717 120.123 303.397 77.7877 303.397ZM269.251 17.9747C207.824 17.9747 158.027 67.7716 158.027 129.199V367.642C158.027 429.07 207.824 478.867 269.251 478.867C330.679 478.867 380.476 429.07 380.476 367.642V129.199C380.476 67.7716 330.679 17.9747 269.251 17.9747Z" stroke="#2EC866" stroke-width="1.73406"/>
</svg>
