<svg width="19" height="19" viewBox="0 0 19 19" fill="none" xmlns="http://www.w3.org/2000/svg">
<path fill-rule="evenodd" clip-rule="evenodd" d="M18.6749 8.76432C18.5415 3.96432 14.6082 0.0976562 9.67487 0.0976562C4.87487 0.0976562 0.941536 3.89766 0.741536 8.63099C0.741536 8.76432 0.741536 8.89766 0.741536 9.03099C0.741536 10.6977 1.2082 12.2977 2.0082 13.631L0.408203 18.3643L5.34154 16.7643C6.6082 17.4977 8.07487 17.8977 9.67487 17.8977C14.6082 17.8977 18.6082 13.8977 18.6082 9.03099C18.6749 8.89766 18.6749 8.83099 18.6749 8.76432ZM9.67487 16.4977C8.14154 16.4977 6.74154 16.031 5.54154 15.231L2.67487 16.1643L3.6082 13.3643C2.67487 12.0977 2.14154 10.631 2.14154 8.96432C2.14154 8.69766 2.14154 8.49766 2.2082 8.23099C2.54154 4.49766 5.8082 1.49766 9.67487 1.49766C13.6082 1.49766 16.8749 4.56432 17.2082 8.36432C17.2082 8.56432 17.2082 8.76432 17.2082 8.96432C17.2749 13.0977 13.8749 16.4977 9.67487 16.4977Z" fill="#FBFBF6"/>
<path fill-rule="evenodd" clip-rule="evenodd" d="M13.8085 10.7652C13.6085 10.6318 12.4751 10.0985 12.2751 10.0318C12.0751 9.96516 11.9418 9.89849 11.8085 10.1652C11.6751 10.3652 11.2085 10.8985 11.1418 11.0318C11.0085 11.1652 10.8751 11.1652 10.6751 11.0985C10.4085 10.9652 9.7418 10.7652 8.87513 10.0318C8.20846 9.43182 7.80846 8.76516 7.67513 8.49849C7.5418 8.29849 7.67513 8.16516 7.7418 8.03182C7.87513 7.89849 7.9418 7.76516 8.07513 7.63182C8.07513 7.56516 8.1418 7.56516 8.1418 7.49849C8.20846 7.43182 8.20846 7.36516 8.27513 7.23182C8.3418 7.09849 8.3418 6.96516 8.27513 6.83182C8.20846 6.69849 7.80846 5.63182 7.60846 5.23182C7.40846 4.76516 7.27513 4.89849 7.1418 4.89849C7.00846 4.89849 6.87513 4.89849 6.7418 4.89849C6.60846 4.89849 6.3418 4.96516 6.1418 5.16516C5.87513 5.43182 5.3418 5.96516 5.3418 7.03182C5.3418 7.29849 5.40846 7.56516 5.47513 7.76516C5.67513 8.56516 6.20846 9.16516 6.27513 9.29849C6.40846 9.43182 7.80846 11.6985 10.0085 12.5652C12.2751 13.4318 12.2751 13.1652 12.6751 13.0985C13.0751 13.0318 14.0085 12.5652 14.1418 12.0318C14.3418 11.4985 14.3418 11.0985 14.2751 10.9652C14.2085 10.9652 14.0085 10.8985 13.8085 10.7652Z" fill="#FBFBF6"/>
</svg>
