<svg width="10" height="9" viewBox="0 0 10 9" fill="none" xmlns="http://www.w3.org/2000/svg">
<path fill-rule="evenodd" clip-rule="evenodd" d="M8.61608 6.24172C8.41608 6.10839 7.28275 5.57505 7.08275 5.50839C6.88275 5.44172 6.74941 5.37505 6.61608 5.64172C6.48275 5.84172 6.01608 6.37505 5.94941 6.50839C5.81608 6.64172 5.68275 6.64172 5.48275 6.57505C5.21608 6.44172 4.54941 6.24172 3.68275 5.50839C3.01608 4.90839 2.61608 4.24172 2.48275 3.97505C2.34941 3.77505 2.48275 3.64172 2.54941 3.50839C2.68275 3.37505 2.74941 3.24172 2.88275 3.10839C2.88275 3.04172 2.94941 3.04172 2.94941 2.97505C3.01608 2.90839 3.01608 2.84172 3.08275 2.70839C3.14941 2.57505 3.14941 2.44172 3.08275 2.30839C3.01608 2.17505 2.61608 1.10839 2.41608 0.708386C2.21608 0.241719 2.08275 0.375053 1.94941 0.375053C1.81608 0.375053 1.68275 0.375053 1.54941 0.375053C1.41608 0.375053 1.14941 0.441719 0.949414 0.641719C0.682748 0.908386 0.149414 1.44172 0.149414 2.50839C0.149414 2.77505 0.216081 3.04172 0.282747 3.24172C0.482747 4.04172 1.01608 4.64172 1.08275 4.77505C1.21608 4.90839 2.61608 7.17505 4.81608 8.04172C7.08275 8.90839 7.08275 8.64172 7.48275 8.57505C7.88275 8.50839 8.81608 8.04172 8.94941 7.50839C9.14941 6.97505 9.14941 6.57505 9.08275 6.44172C9.01608 6.44172 8.81608 6.37505 8.61608 6.24172Z" fill="#FBFBF6"/>
</svg>
