<svg width="17" height="16" viewBox="0 0 17 16" fill="none" xmlns="http://www.w3.org/2000/svg">
<path d="M12.4065 10.3958L12.4396 10.3544L12.4633 10.3071C12.473 10.2876 12.4816 10.2727 12.4886 10.2616C12.4928 10.2625 12.4973 10.2636 12.5022 10.2648C12.549 10.2765 12.6088 10.2975 12.6943 10.3317C13.0247 10.4639 14.8261 11.3636 15.3031 11.6021C15.4402 11.684 15.5686 11.7568 15.6734 11.8162C15.7059 11.8346 15.736 11.8517 15.7635 11.8674C15.7951 11.8854 15.8223 11.9012 15.8458 11.915C15.8545 11.9843 15.8574 12.086 15.8463 12.2197C15.8237 12.4903 15.7462 12.8578 15.5809 13.2876C15.4594 13.6036 15.0854 13.981 14.58 14.3065C14.0791 14.6292 13.5813 14.8166 13.3342 14.8413C13.1609 14.8586 12.9895 14.9053 12.874 14.9368C12.8401 14.946 12.8111 14.954 12.7882 14.9595C12.6685 14.9881 12.5273 15.0114 12.2878 14.9932C11.7749 14.9544 10.8278 14.7281 8.81676 13.9381C5.32352 12.5401 2.98805 9.14359 2.43964 8.34602C2.3988 8.28662 2.36787 8.24163 2.34711 8.21296C2.34325 8.20719 2.33905 8.20093 2.33452 8.19417C2.15227 7.92208 1.43914 6.85749 1.04628 5.61343L1.04634 5.61341L1.04383 5.60588C0.915918 5.22214 0.853516 4.84351 0.853516 4.46815C0.853516 2.79503 1.67396 1.98032 2.03662 1.6202C2.05002 1.60689 2.06281 1.59419 2.0749 1.5821L2.09094 1.56606L2.10546 1.54864C2.33831 1.26922 2.60287 1.22461 2.80122 1.22461C2.86642 1.22461 2.95429 1.23613 3.09046 1.25558C3.09545 1.25629 3.10053 1.25702 3.1057 1.25776C3.22039 1.27419 3.37686 1.2966 3.52113 1.2966C3.57019 1.2966 3.6179 1.29271 3.64661 1.29037L3.64903 1.29017L3.65026 1.29007C3.6841 1.28731 3.70364 1.28572 3.72311 1.28508C3.74404 1.2844 3.75453 1.28541 3.75871 1.28604C3.77901 1.30049 3.84179 1.36073 3.92078 1.55823L3.92507 1.56893L3.92984 1.57943C4.10553 1.96595 4.39045 2.64236 4.64163 3.26133C4.76688 3.57 4.88254 3.86141 4.97093 4.09233C5.01519 4.20797 5.05188 4.30652 5.07927 4.38354C5.09297 4.42208 5.10376 4.45359 5.11175 4.47816C5.11573 4.49038 5.11872 4.49998 5.12088 4.50722C5.12282 4.51373 5.12366 4.51691 5.12379 4.5174C5.12381 4.51746 5.12381 4.51748 5.12381 4.51746L5.13711 4.57067L5.16166 4.61977C5.18292 4.66228 5.18993 4.68774 5.19159 4.70765C5.19276 4.72171 5.19379 4.7562 5.16166 4.82047L5.05367 5.03645L4.97321 5.19737C4.96522 5.20733 4.95675 5.21822 4.9479 5.23002C4.91615 5.27235 4.87921 5.32683 4.84153 5.3935C4.73642 5.50329 4.6363 5.62067 4.55226 5.71999C4.54371 5.73009 4.53538 5.73995 4.52726 5.74954C4.4509 5.83984 4.39358 5.90762 4.3485 5.9561C4.22492 6.04321 4.02395 6.20916 3.94313 6.47184C3.83707 6.81651 3.98157 7.12618 4.20119 7.36517C4.45794 7.79007 5.26384 9.07707 6.42835 10.0971C7.69203 11.2395 8.90679 11.761 9.43001 11.9856C9.54798 12.0363 9.6308 12.0718 9.67109 12.096L9.68756 12.1059L9.70473 12.1145C9.92798 12.2261 10.1952 12.3378 10.4745 12.3191C10.792 12.298 11.0134 12.1232 11.1708 11.9232C11.3093 11.7781 11.5482 11.482 11.7687 11.2043C11.895 11.0453 12.0186 10.888 12.1288 10.7476C12.2378 10.6089 12.3338 10.4867 12.4065 10.3958ZM3.75177 1.28219C3.75185 1.28193 3.75393 1.28274 3.7578 1.2854C3.75363 1.28378 3.7517 1.28245 3.75177 1.28219Z" stroke="white"/>
</svg>
