<svg width="17" height="16" viewBox="0 0 17 16" fill="none" xmlns="http://www.w3.org/2000/svg">
<path d="M12.5999 9.91925L12.633 9.87788L12.6567 9.83051C12.6664 9.81102 12.6749 9.79617 12.682 9.78505C12.6861 9.78596 12.6907 9.78702 12.6956 9.78826C12.7424 9.79995 12.8021 9.82096 12.8876 9.85516C13.2181 9.98734 15.0195 10.887 15.4964 11.1255C15.6336 11.2075 15.762 11.2802 15.8668 11.3397C15.8992 11.358 15.9294 11.3752 15.9569 11.3909C15.9884 11.4089 16.0157 11.4246 16.0391 11.4385C16.0478 11.5077 16.0508 11.6094 16.0396 11.7431C16.0171 12.0138 15.9396 12.3812 15.7743 12.811C15.6527 13.127 15.2788 13.5044 14.7734 13.83C14.2724 14.1526 13.7747 14.34 13.5275 14.3647C13.3542 14.3821 13.1829 14.4288 13.0673 14.4603C13.0335 14.4695 13.0044 14.4774 12.9815 14.4829C12.8619 14.5116 12.7206 14.5348 12.4812 14.5167C11.9682 14.4778 11.0211 14.2515 9.01012 13.4616C5.51688 12.0636 3.18141 8.66702 2.633 7.86946C2.59216 7.81006 2.56123 7.76507 2.54047 7.7364C2.53661 7.73063 2.53241 7.72436 2.52788 7.71761C2.34563 7.44552 1.6325 6.38093 1.23964 5.13686L1.2397 5.13684L1.23719 5.12931C1.10928 4.74558 1.04688 4.36695 1.04688 3.99159C1.04688 2.31847 1.86732 1.50376 2.22997 1.14364C2.24338 1.13033 2.25617 1.11763 2.26826 1.10554L2.2843 1.0895L2.29882 1.07208C2.53167 0.792658 2.79623 0.748047 2.99457 0.748047C3.05978 0.748047 3.14765 0.759565 3.28382 0.779017C3.28881 0.77973 3.29389 0.780458 3.29906 0.781198C3.41374 0.797625 3.57022 0.820038 3.71449 0.820038C3.76355 0.820038 3.81126 0.816146 3.83997 0.813805L3.84239 0.813607L3.84362 0.813507C3.87745 0.810751 3.897 0.809159 3.91647 0.808521C3.9374 0.807835 3.94789 0.808851 3.95207 0.809481C3.97237 0.823923 4.03515 0.884172 4.11414 1.08166L4.11842 1.09237L4.1232 1.10287C4.29889 1.48939 4.58381 2.1658 4.83499 2.78477C4.96024 3.09343 5.0759 3.38484 5.16429 3.61577C5.20855 3.73141 5.24524 3.82996 5.27263 3.90698C5.28633 3.94551 5.29712 3.97702 5.30511 4.0016C5.30909 4.01381 5.31208 4.02341 5.31424 4.03066C5.31618 4.03717 5.31702 4.04035 5.31715 4.04084C5.31717 4.04089 5.31717 4.04091 5.31717 4.0409L5.33047 4.09411L5.35502 4.1432C5.37628 4.18572 5.38329 4.21118 5.38495 4.23109C5.38612 4.24515 5.38715 4.27964 5.35502 4.34391L5.24703 4.55988L5.16657 4.7208C5.15858 4.73077 5.15011 4.74166 5.14126 4.75346C5.10951 4.79579 5.07257 4.85026 5.03489 4.91694C4.92978 5.02673 4.82966 5.14411 4.74562 5.24342C4.73707 5.25353 4.72873 5.26338 4.72062 5.27298C4.64426 5.36328 4.58694 5.43105 4.54186 5.47954C4.41828 5.56664 4.21731 5.7326 4.13649 5.99528C4.03043 6.33995 4.17493 6.64962 4.39455 6.88861C4.6513 7.31351 5.4572 8.6005 6.62171 9.62049C7.88539 10.7629 9.10014 11.2844 9.62337 11.5091C9.74134 11.5597 9.82416 11.5953 9.86445 11.6195L9.88092 11.6293L9.89809 11.6379C10.1213 11.7495 10.3885 11.8612 10.6679 11.8426C10.9854 11.8214 11.2068 11.6466 11.3641 11.4467C11.5027 11.3015 11.7416 11.0054 11.9621 10.7277C12.0884 10.5687 12.2119 10.4114 12.3222 10.2711C12.4312 10.1323 12.5271 10.0102 12.5999 9.91925ZM3.94513 0.805626C3.94521 0.805368 3.94729 0.806179 3.95116 0.808838C3.94699 0.807214 3.94506 0.805885 3.94513 0.805626Z" stroke="white"/>
</svg>
