<svg width="111" height="16" viewBox="0 0 111 16" fill="none" xmlns="http://www.w3.org/2000/svg">
<path d="M6.07638 12.4131C2.81383 12.4131 0.413086 10.0416 0.413086 6.85922C0.413086 3.70744 2.82922 1.30535 6.09177 1.30535C9.35431 1.30535 11.7704 3.73804 11.7704 6.85922C11.7704 10.011 9.33892 12.4131 6.07638 12.4131ZM6.09177 10.47C8.15394 10.47 9.63132 8.94001 9.63132 6.85922C9.63132 4.80903 8.15394 3.24844 6.09177 3.24844C4.0142 3.24844 2.53682 4.80903 2.53682 6.85922C2.53682 8.94001 4.0142 10.47 6.09177 10.47ZM13.9552 15.7332V4.16644H15.925V5.19153H16.0327C16.2482 4.85493 16.9869 3.96754 18.4643 3.96754C20.7265 3.96754 22.2808 5.65053 22.2808 8.15971C22.2808 10.6689 20.7419 12.4131 18.5258 12.4131C17.0946 12.4131 16.3251 11.6175 16.0635 11.1738H15.9558V15.7332H13.9552ZM18.0795 10.6077C19.3722 10.6077 20.2494 9.6132 20.2494 8.19031C20.2494 6.72152 19.3722 5.77293 18.0641 5.77293C16.7406 5.77293 15.9096 6.82862 15.9096 8.19031C15.9096 9.6897 16.833 10.6077 18.0795 10.6077ZM28.0051 12.4131C25.6197 12.4131 23.9269 10.6383 23.9269 8.23621C23.9269 5.69643 25.6351 3.96754 28.0051 3.96754C30.6059 3.96754 32.0217 5.88003 32.0217 8.14441V8.77171H25.866C25.9275 9.9957 26.7739 10.8219 28.0667 10.8219C29.0516 10.8219 29.8057 10.3629 30.0827 9.705H31.9448C31.5447 11.3421 30.0981 12.4131 28.0051 12.4131ZM25.8968 7.36412H30.1134C30.0211 6.27782 29.1747 5.55873 28.0051 5.55873C26.8817 5.55873 26.0199 6.35432 25.8968 7.36412ZM34.1757 12.2142V4.16644H36.084V5.14563H36.1917C36.5149 4.54893 37.3151 3.96754 38.4693 3.96754C40.2853 3.96754 41.3933 5.23743 41.3933 6.95102V12.2142H39.3927V7.47122C39.3927 6.49202 38.7617 5.83413 37.8383 5.83413C36.8688 5.83413 36.1763 6.59912 36.1763 7.60891V12.2142H34.1757ZM43.3779 12.2142V10.3935L48.9797 3.37084V3.26374H43.578V1.50425H51.5343V3.30964L45.9326 10.3323V10.4547H51.5651V12.2142H43.3779ZM56.9816 12.4131C54.5962 12.4131 52.9034 10.6383 52.9034 8.23621C52.9034 5.69643 54.6116 3.96754 56.9816 3.96754C59.5824 3.96754 60.9982 5.88003 60.9982 8.14441V8.77171H54.8425C54.904 9.9957 55.7504 10.8219 57.0431 10.8219C58.0281 10.8219 58.7821 10.3629 59.0592 9.705H60.9213C60.5211 11.3421 59.0745 12.4131 56.9816 12.4131ZM54.8732 7.36412H59.0899C58.9976 6.27782 58.1512 5.55873 56.9816 5.55873C55.8582 5.55873 54.9964 6.35432 54.8732 7.36412ZM63.1522 15.7332V4.16644H65.122V5.19153H65.2297C65.4452 4.85493 66.1839 3.96754 67.6612 3.96754C69.9235 3.96754 71.4778 5.65053 71.4778 8.15971C71.4778 10.6689 69.9389 12.4131 67.7228 12.4131C66.2916 12.4131 65.5221 11.6175 65.2605 11.1738H65.1528V15.7332H63.1522ZM67.2765 10.6077C68.5692 10.6077 69.4464 9.6132 69.4464 8.19031C69.4464 6.72152 68.5692 5.77293 67.2611 5.77293C65.9376 5.77293 65.1066 6.82862 65.1066 8.19031C65.1066 9.6897 66.03 10.6077 67.2765 10.6077ZM73.6318 15.7332V4.16644H75.6016V5.19153H75.7093C75.9248 4.85493 76.6635 3.96754 78.1408 3.96754C80.4031 3.96754 81.9574 5.65053 81.9574 8.15971C81.9574 10.6689 80.4185 12.4131 78.2024 12.4131C76.7712 12.4131 76.0017 11.6175 75.7401 11.1738H75.6324V15.7332H73.6318ZM77.7561 10.6077C79.0488 10.6077 79.926 9.6132 79.926 8.19031C79.926 6.72152 79.0488 5.77293 77.7407 5.77293C76.4172 5.77293 75.5862 6.82862 75.5862 8.19031C75.5862 9.6897 76.5096 10.6077 77.7561 10.6077ZM87.6817 12.4131C85.2963 12.4131 83.6035 10.6383 83.6035 8.23621C83.6035 5.69643 85.3117 3.96754 87.6817 3.96754C90.2825 3.96754 91.6983 5.88003 91.6983 8.14441V8.77171H85.5426C85.6041 9.9957 86.4505 10.8219 87.7432 10.8219C88.7282 10.8219 89.4822 10.3629 89.7593 9.705H91.6214C91.2212 11.3421 89.7746 12.4131 87.6817 12.4131ZM85.5733 7.36412H89.79C89.6977 6.27782 88.8513 5.55873 87.6817 5.55873C86.5583 5.55873 85.6965 6.35432 85.5733 7.36412ZM95.8221 12.2142C94.4063 12.2142 93.606 11.3727 93.606 9.9498V0.739258H95.6067V9.7662C95.6067 10.2252 95.8375 10.47 96.253 10.47H96.5762V12.2142H95.8221ZM99.4996 3.09544C98.7763 3.09544 98.2684 2.65175 98.2684 1.93265C98.2684 1.24415 98.7763 0.785158 99.4996 0.785158C100.223 0.785158 100.731 1.24415 100.731 1.93265C100.731 2.65175 100.223 3.09544 99.4996 3.09544ZM98.4993 12.2142V4.16644H100.5V12.2142H98.4993ZM102.931 12.2142V4.16644H104.839V5.14563H104.947C105.27 4.54893 106.07 3.96754 107.224 3.96754C109.04 3.96754 110.148 5.23743 110.148 6.95102V12.2142H108.148V7.47122C108.148 6.49202 107.517 5.83413 106.594 5.83413C105.624 5.83413 104.931 6.59912 104.931 7.60891V12.2142H102.931Z" fill="#CCCCCC"/>
</svg>
